<?xml version="1.0" encoding="UTF-8" standalone="no"?>
<!DOCTYPE svg PUBLIC "-//W3C//DTD SVG 1.1//EN"
 "http://www.w3.org/Graphics/SVG/1.1/DTD/svg11.dtd">
<!-- Generated by graphviz version 2.40.1 (20161225.0304)
 -->
<!-- Title: %3 Pages: 1 -->
<svg width="2552pt" height="332pt"
 viewBox="0.00 0.00 2551.50 332.00" xmlns="http://www.w3.org/2000/svg" xmlns:xlink="http://www.w3.org/1999/xlink">
<g id="graph0" class="graph" transform="scale(1 1) rotate(0) translate(4 328)">
<title>%3</title>
<polygon fill="#ffffff" stroke="transparent" points="-4,4 -4,-328 2547.5,-328 2547.5,4 -4,4"/>
<!-- [root] aws_default_security_group.def_sg (prepare state) -->
<g id="node1" class="node">
<title>[root] aws_default_security_group.def_sg (prepare state)</title>
<polygon fill="none" stroke="#000000" points="2117,-108 1908,-108 1908,-72 2117,-72 2117,-108"/>
<text text-anchor="middle" x="2012.5" y="-86.3" font-family="Times,serif" font-size="14.00" fill="#000000">aws_default_security_group.def_sg</text>
</g>
<!-- [root] provider.aws -->
<g id="node22" class="node">
<title>[root] provider.aws</title>
<polygon fill="none" stroke="#000000" points="1213.5,-36 1133.5666,-18 1213.5,0 1293.4334,-18 1213.5,-36"/>
<text text-anchor="middle" x="1213.5" y="-14.3" font-family="Times,serif" font-size="14.00" fill="#000000">provider.aws</text>
</g>
<!-- [root] aws_default_security_group.def_sg (prepare state)&#45;&gt;[root] provider.aws -->
<g id="edge1" class="edge">
<title>[root] aws_default_security_group.def_sg (prepare state)&#45;&gt;[root] provider.aws</title>
<path fill="none" stroke="#000000" d="M1907.8807,-73.0353C1905.0593,-72.6742 1902.2617,-72.3281 1899.5,-72 1678.2447,-45.7117 1415.2662,-29.0659 1288.7953,-21.9658"/>
<polygon fill="#000000" stroke="#000000" points="1288.6359,-18.4516 1278.4566,-21.3896 1288.2464,-25.4407 1288.6359,-18.4516"/>
</g>
<!-- [root] aws_instance.ex4_jump (prepare state) -->
<g id="node2" class="node">
<title>[root] aws_instance.ex4_jump (prepare state)</title>
<polygon fill="none" stroke="#000000" points="250,-108 103,-108 103,-72 250,-72 250,-108"/>
<text text-anchor="middle" x="176.5" y="-86.3" font-family="Times,serif" font-size="14.00" fill="#000000">aws_instance.ex4_jump</text>
</g>
<!-- [root] aws_instance.ex4_jump (prepare state)&#45;&gt;[root] provider.aws -->
<g id="edge2" class="edge">
<title>[root] aws_instance.ex4_jump (prepare state)&#45;&gt;[root] provider.aws</title>
<path fill="none" stroke="#000000" d="M250.1597,-73.3974C253.3085,-72.8865 256.4318,-72.4169 259.5,-72 427.7525,-49.138 936.9528,-28.3092 1134.2292,-20.8809"/>
<polygon fill="#000000" stroke="#000000" points="1134.6535,-24.3676 1144.5152,-20.4951 1134.3911,-17.3725 1134.6535,-24.3676"/>
</g>
<!-- [root] aws_instance.ex4_other (prepare state) -->
<g id="node3" class="node">
<title>[root] aws_instance.ex4_other (prepare state)</title>
<polygon fill="none" stroke="#000000" points="414.5,-108 268.5,-108 268.5,-72 414.5,-72 414.5,-108"/>
<text text-anchor="middle" x="341.5" y="-86.3" font-family="Times,serif" font-size="14.00" fill="#000000">aws_instance.ex4_other</text>
</g>
<!-- [root] aws_instance.ex4_other (prepare state)&#45;&gt;[root] provider.aws -->
<g id="edge3" class="edge">
<title>[root] aws_instance.ex4_other (prepare state)&#45;&gt;[root] provider.aws</title>
<path fill="none" stroke="#000000" d="M414.7197,-73.3655C417.6792,-72.8714 420.6144,-72.413 423.5,-72 678.9933,-35.4307 984.6349,-23.4561 1129.4553,-19.6703"/>
<polygon fill="#000000" stroke="#000000" points="1129.694,-23.1655 1139.6015,-19.4117 1129.5155,-16.1678 1129.694,-23.1655"/>
</g>
<!-- [root] aws_instance.ex4_web (prepare state) -->
<g id="node4" class="node">
<title>[root] aws_instance.ex4_web (prepare state)</title>
<polygon fill="none" stroke="#000000" points="2327,-108 2186,-108 2186,-72 2327,-72 2327,-108"/>
<text text-anchor="middle" x="2256.5" y="-86.3" font-family="Times,serif" font-size="14.00" fill="#000000">aws_instance.ex4_web</text>
</g>
<!-- [root] aws_instance.ex4_web (prepare state)&#45;&gt;[root] provider.aws -->
<g id="edge4" class="edge">
<title>[root] aws_instance.ex4_web (prepare state)&#45;&gt;[root] provider.aws</title>
<path fill="none" stroke="#000000" d="M2185.7767,-79.1805C2166.58,-76.5245 2145.7735,-73.9013 2126.5,-72 1819.5753,-41.7219 1452.8073,-26.3033 1293.6946,-20.6258"/>
<polygon fill="#000000" stroke="#000000" points="1293.6348,-17.1216 1283.5173,-20.2659 1293.3873,-24.1172 1293.6348,-17.1216"/>
</g>
<!-- [root] aws_internet_gateway.ex4_igw (prepare state) -->
<g id="node5" class="node">
<title>[root] aws_internet_gateway.ex4_igw (prepare state)</title>
<polygon fill="none" stroke="#000000" points="620.5,-108 432.5,-108 432.5,-72 620.5,-72 620.5,-108"/>
<text text-anchor="middle" x="526.5" y="-86.3" font-family="Times,serif" font-size="14.00" fill="#000000">aws_internet_gateway.ex4_igw</text>
</g>
<!-- [root] aws_internet_gateway.ex4_igw (prepare state)&#45;&gt;[root] provider.aws -->
<g id="edge5" class="edge">
<title>[root] aws_internet_gateway.ex4_igw (prepare state)&#45;&gt;[root] provider.aws</title>
<path fill="none" stroke="#000000" d="M620.5517,-73.379C623.9063,-72.8954 627.2303,-72.4337 630.5,-72 813.9608,-47.6658 1031.3496,-30.6312 1141.6132,-22.8215"/>
<polygon fill="#000000" stroke="#000000" points="1141.8928,-26.3106 1151.6224,-22.1171 1141.4014,-19.3279 1141.8928,-26.3106"/>
</g>
<!-- [root] aws_key_pair.course_ssh_key (prepare state) -->
<g id="node6" class="node">
<title>[root] aws_key_pair.course_ssh_key (prepare state)</title>
<polygon fill="none" stroke="#000000" points="820,-108 639,-108 639,-72 820,-72 820,-108"/>
<text text-anchor="middle" x="729.5" y="-86.3" font-family="Times,serif" font-size="14.00" fill="#000000">aws_key_pair.course_ssh_key</text>
</g>
<!-- [root] aws_key_pair.course_ssh_key (prepare state)&#45;&gt;[root] provider.aws -->
<g id="edge6" class="edge">
<title>[root] aws_key_pair.course_ssh_key (prepare state)&#45;&gt;[root] provider.aws</title>
<path fill="none" stroke="#000000" d="M820.2251,-73.5127C823.3532,-72.9943 826.4519,-72.4885 829.5,-72 943.1441,-53.7883 1076.255,-35.8182 1152.1509,-25.8888"/>
<polygon fill="#000000" stroke="#000000" points="1153.0094,-29.3065 1162.4724,-24.5419 1152.1035,-22.3654 1153.0094,-29.3065"/>
</g>
<!-- [root] aws_route_table.ex4_rt (prepare state) -->
<g id="node7" class="node">
<title>[root] aws_route_table.ex4_rt (prepare state)</title>
<polygon fill="none" stroke="#000000" points="981,-108 838,-108 838,-72 981,-72 981,-108"/>
<text text-anchor="middle" x="909.5" y="-86.3" font-family="Times,serif" font-size="14.00" fill="#000000">aws_route_table.ex4_rt</text>
</g>
<!-- [root] aws_route_table.ex4_rt (prepare state)&#45;&gt;[root] provider.aws -->
<g id="edge7" class="edge">
<title>[root] aws_route_table.ex4_rt (prepare state)&#45;&gt;[root] provider.aws</title>
<path fill="none" stroke="#000000" d="M981.1588,-73.0282C1037.652,-59.6482 1114.9235,-41.3471 1164.5315,-29.5978"/>
<polygon fill="#000000" stroke="#000000" points="1165.4507,-32.977 1174.3748,-27.2665 1163.8374,-26.1654 1165.4507,-32.977"/>
</g>
<!-- [root] aws_route_table_association.rt2public (prepare state) -->
<g id="node8" class="node">
<title>[root] aws_route_table_association.rt2public (prepare state)</title>
<polygon fill="none" stroke="#000000" points="1223.5,-108 999.5,-108 999.5,-72 1223.5,-72 1223.5,-108"/>
<text text-anchor="middle" x="1111.5" y="-86.3" font-family="Times,serif" font-size="14.00" fill="#000000">aws_route_table_association.rt2public</text>
</g>
<!-- [root] aws_route_table_association.rt2public (prepare state)&#45;&gt;[root] provider.aws -->
<g id="edge8" class="edge">
<title>[root] aws_route_table_association.rt2public (prepare state)&#45;&gt;[root] provider.aws</title>
<path fill="none" stroke="#000000" d="M1137.2389,-71.8314C1151.9406,-61.4537 1170.389,-48.4313 1185.4581,-37.7943"/>
<polygon fill="#000000" stroke="#000000" points="1187.7349,-40.4713 1193.8862,-31.845 1183.6981,-34.7525 1187.7349,-40.4713"/>
</g>
<!-- [root] aws_subnet.ex4_private (prepare state) -->
<g id="node9" class="node">
<title>[root] aws_subnet.ex4_private (prepare state)</title>
<polygon fill="none" stroke="#000000" points="1389,-108 1242,-108 1242,-72 1389,-72 1389,-108"/>
<text text-anchor="middle" x="1315.5" y="-86.3" font-family="Times,serif" font-size="14.00" fill="#000000">aws_subnet.ex4_private</text>
</g>
<!-- [root] aws_subnet.ex4_private (prepare state)&#45;&gt;[root] provider.aws -->
<g id="edge9" class="edge">
<title>[root] aws_subnet.ex4_private (prepare state)&#45;&gt;[root] provider.aws</title>
<path fill="none" stroke="#000000" d="M1289.7611,-71.8314C1275.0594,-61.4537 1256.611,-48.4313 1241.5419,-37.7943"/>
<polygon fill="#000000" stroke="#000000" points="1243.3019,-34.7525 1233.1138,-31.845 1239.2651,-40.4713 1243.3019,-34.7525"/>
</g>
<!-- [root] aws_subnet.ex4_public (prepare state) -->
<g id="node10" class="node">
<title>[root] aws_subnet.ex4_public (prepare state)</title>
<polygon fill="none" stroke="#000000" points="1550,-108 1407,-108 1407,-72 1550,-72 1550,-108"/>
<text text-anchor="middle" x="1478.5" y="-86.3" font-family="Times,serif" font-size="14.00" fill="#000000">aws_subnet.ex4_public</text>
</g>
<!-- [root] aws_subnet.ex4_public (prepare state)&#45;&gt;[root] provider.aws -->
<g id="edge10" class="edge">
<title>[root] aws_subnet.ex4_public (prepare state)&#45;&gt;[root] provider.aws</title>
<path fill="none" stroke="#000000" d="M1411.9714,-71.9243C1364.4222,-59.0053 1301.6552,-41.9516 1259.5529,-30.5125"/>
<polygon fill="#000000" stroke="#000000" points="1260.4118,-27.119 1249.844,-27.8746 1258.5764,-33.8741 1260.4118,-27.119"/>
</g>
<!-- [root] aws_vpc.ex4_vpc (prepare state) -->
<g id="node11" class="node">
<title>[root] aws_vpc.ex4_vpc (prepare state)</title>
<polygon fill="none" stroke="#000000" points="1681,-108 1568,-108 1568,-72 1681,-72 1681,-108"/>
<text text-anchor="middle" x="1624.5" y="-86.3" font-family="Times,serif" font-size="14.00" fill="#000000">aws_vpc.ex4_vpc</text>
</g>
<!-- [root] aws_vpc.ex4_vpc (prepare state)&#45;&gt;[root] provider.aws -->
<g id="edge11" class="edge">
<title>[root] aws_vpc.ex4_vpc (prepare state)&#45;&gt;[root] provider.aws</title>
<path fill="none" stroke="#000000" d="M1567.8751,-73.9052C1565.0503,-73.2324 1562.2471,-72.5927 1559.5,-72 1461.2836,-50.8104 1345.6789,-34.4745 1276.0696,-25.5564"/>
<polygon fill="#000000" stroke="#000000" points="1276.083,-22.0301 1265.7216,-24.242 1275.2009,-28.9743 1276.083,-22.0301"/>
</g>
<!-- [root] data.aws_ami.gnu_linux_image (prepare state) -->
<g id="node12" class="node">
<title>[root] data.aws_ami.gnu_linux_image (prepare state)</title>
<polygon fill="none" stroke="#000000" points="1890,-108 1699,-108 1699,-72 1890,-72 1890,-108"/>
<text text-anchor="middle" x="1794.5" y="-86.3" font-family="Times,serif" font-size="14.00" fill="#000000">data.aws_ami.gnu_linux_image</text>
</g>
<!-- [root] data.aws_ami.gnu_linux_image (prepare state)&#45;&gt;[root] provider.aws -->
<g id="edge12" class="edge">
<title>[root] data.aws_ami.gnu_linux_image (prepare state)&#45;&gt;[root] provider.aws</title>
<path fill="none" stroke="#000000" d="M1698.7635,-73.2128C1695.98,-72.7945 1693.2209,-72.3891 1690.5,-72 1544.579,-51.1309 1372.6002,-33.3223 1280.2239,-24.3069"/>
<polygon fill="#000000" stroke="#000000" points="1280.4679,-20.8142 1270.1762,-23.3303 1279.7907,-27.7813 1280.4679,-20.8142"/>
</g>
<!-- [root] output.VPC_prefix -->
<g id="node13" class="node">
<title>[root] output.VPC_prefix</title>
<polygon fill="none" stroke="#000000" points="1560.5,-180 1446.5,-180 1446.5,-144 1566.5,-144 1566.5,-174 1560.5,-180"/>
<polyline fill="none" stroke="#000000" points="1560.5,-180 1560.5,-174 "/>
<polyline fill="none" stroke="#000000" points="1566.5,-174 1560.5,-174 "/>
<text text-anchor="middle" x="1506.5" y="-158.3" font-family="Times,serif" font-size="14.00" fill="#000000">output.VPC_prefix</text>
</g>
<!-- [root] output.VPC_prefix&#45;&gt;[root] aws_vpc.ex4_vpc (prepare state) -->
<g id="edge34" class="edge">
<title>[root] output.VPC_prefix&#45;&gt;[root] aws_vpc.ex4_vpc (prepare state)</title>
<path fill="none" stroke="#000000" d="M1536.2764,-143.8314C1551.3693,-134.6221 1569.8757,-123.3301 1586.0343,-113.4706"/>
<polygon fill="#000000" stroke="#000000" points="1588.0198,-116.3593 1594.7331,-108.1628 1584.3737,-110.3838 1588.0198,-116.3593"/>
</g>
<!-- [root] output.jump_host_ip -->
<g id="node14" class="node">
<title>[root] output.jump_host_ip</title>
<polygon fill="none" stroke="#000000" points="457.5,-180 333.5,-180 333.5,-144 463.5,-144 463.5,-174 457.5,-180"/>
<polyline fill="none" stroke="#000000" points="457.5,-180 457.5,-174 "/>
<polyline fill="none" stroke="#000000" points="463.5,-174 457.5,-174 "/>
<text text-anchor="middle" x="398.5" y="-158.3" font-family="Times,serif" font-size="14.00" fill="#000000">output.jump_host_ip</text>
</g>
<!-- [root] output.jump_host_ip&#45;&gt;[root] aws_instance.ex4_jump (prepare state) -->
<g id="edge35" class="edge">
<title>[root] output.jump_host_ip&#45;&gt;[root] aws_instance.ex4_jump (prepare state)</title>
<path fill="none" stroke="#000000" d="M342.7666,-143.9243C312.154,-133.9959 274.0119,-121.6255 241.9845,-111.2382"/>
<polygon fill="#000000" stroke="#000000" points="242.8484,-107.839 232.2564,-108.0831 240.6888,-114.4975 242.8484,-107.839"/>
</g>
<!-- [root] output.jump_host_name -->
<g id="node15" class="node">
<title>[root] output.jump_host_name</title>
<polygon fill="none" stroke="#000000" points="625,-180 482,-180 482,-144 631,-144 631,-174 625,-180"/>
<polyline fill="none" stroke="#000000" points="625,-180 625,-174 "/>
<polyline fill="none" stroke="#000000" points="631,-174 625,-174 "/>
<text text-anchor="middle" x="556.5" y="-158.3" font-family="Times,serif" font-size="14.00" fill="#000000">output.jump_host_name</text>
</g>
<!-- [root] output.jump_host_name&#45;&gt;[root] aws_instance.ex4_jump (prepare state) -->
<g id="edge36" class="edge">
<title>[root] output.jump_host_name&#45;&gt;[root] aws_instance.ex4_jump (prepare state)</title>
<path fill="none" stroke="#000000" d="M481.8794,-145.8331C478.7128,-145.2029 475.5761,-144.5892 472.5,-144 381.336,-126.5371 355.472,-126.1831 260.2876,-108.1015"/>
<polygon fill="#000000" stroke="#000000" points="260.71,-104.6188 250.23,-106.1744 259.3927,-111.4937 260.71,-104.6188"/>
</g>
<!-- [root] output.private_host_ip -->
<g id="node16" class="node">
<title>[root] output.private_host_ip</title>
<polygon fill="none" stroke="#000000" points="133,-180 0,-180 0,-144 139,-144 139,-174 133,-180"/>
<polyline fill="none" stroke="#000000" points="133,-180 133,-174 "/>
<polyline fill="none" stroke="#000000" points="139,-174 133,-174 "/>
<text text-anchor="middle" x="69.5" y="-158.3" font-family="Times,serif" font-size="14.00" fill="#000000">output.private_host_ip</text>
</g>
<!-- [root] output.private_host_ip&#45;&gt;[root] aws_instance.ex4_jump (prepare state) -->
<g id="edge37" class="edge">
<title>[root] output.private_host_ip&#45;&gt;[root] aws_instance.ex4_jump (prepare state)</title>
<path fill="none" stroke="#000000" d="M96.5006,-143.8314C109.9331,-134.7927 126.3473,-123.7476 140.8039,-114.0198"/>
<polygon fill="#000000" stroke="#000000" points="143.1654,-116.6494 149.508,-108.1628 139.2575,-110.8418 143.1654,-116.6494"/>
</g>
<!-- [root] output.private_host_name -->
<g id="node17" class="node">
<title>[root] output.private_host_name</title>
<polygon fill="none" stroke="#000000" points="309.5,-180 157.5,-180 157.5,-144 315.5,-144 315.5,-174 309.5,-180"/>
<polyline fill="none" stroke="#000000" points="309.5,-180 309.5,-174 "/>
<polyline fill="none" stroke="#000000" points="315.5,-174 309.5,-174 "/>
<text text-anchor="middle" x="236.5" y="-158.3" font-family="Times,serif" font-size="14.00" fill="#000000">output.private_host_name</text>
</g>
<!-- [root] output.private_host_name&#45;&gt;[root] aws_instance.ex4_jump (prepare state) -->
<g id="edge38" class="edge">
<title>[root] output.private_host_name&#45;&gt;[root] aws_instance.ex4_jump (prepare state)</title>
<path fill="none" stroke="#000000" d="M221.3595,-143.8314C214.3783,-135.454 205.9609,-125.3531 198.3124,-116.1749"/>
<polygon fill="#000000" stroke="#000000" points="200.9351,-113.8548 191.8444,-108.4133 195.5575,-118.3362 200.9351,-113.8548"/>
</g>
<!-- [root] output.private_subnet_prefix -->
<g id="node18" class="node">
<title>[root] output.private_subnet_prefix</title>
<polygon fill="none" stroke="#000000" points="1234,-180 1067,-180 1067,-144 1240,-144 1240,-174 1234,-180"/>
<polyline fill="none" stroke="#000000" points="1234,-180 1234,-174 "/>
<polyline fill="none" stroke="#000000" points="1240,-174 1234,-174 "/>
<text text-anchor="middle" x="1153.5" y="-158.3" font-family="Times,serif" font-size="14.00" fill="#000000">output.private_subnet_prefix</text>
</g>
<!-- [root] output.private_subnet_prefix&#45;&gt;[root] aws_subnet.ex4_private (prepare state) -->
<g id="edge39" class="edge">
<title>[root] output.private_subnet_prefix&#45;&gt;[root] aws_subnet.ex4_private (prepare state)</title>
<path fill="none" stroke="#000000" d="M1194.3794,-143.8314C1216.046,-134.2018 1242.8363,-122.295 1265.7078,-112.1299"/>
<polygon fill="#000000" stroke="#000000" points="1267.1979,-115.2978 1274.9145,-108.038 1264.3549,-108.9011 1267.1979,-115.2978"/>
</g>
<!-- [root] output.public_subnet_prefix -->
<g id="node19" class="node">
<title>[root] output.public_subnet_prefix</title>
<polygon fill="none" stroke="#000000" points="1422.5,-180 1258.5,-180 1258.5,-144 1428.5,-144 1428.5,-174 1422.5,-180"/>
<polyline fill="none" stroke="#000000" points="1422.5,-180 1422.5,-174 "/>
<polyline fill="none" stroke="#000000" points="1428.5,-174 1422.5,-174 "/>
<text text-anchor="middle" x="1343.5" y="-158.3" font-family="Times,serif" font-size="14.00" fill="#000000">output.public_subnet_prefix</text>
</g>
<!-- [root] output.public_subnet_prefix&#45;&gt;[root] aws_subnet.ex4_public (prepare state) -->
<g id="edge40" class="edge">
<title>[root] output.public_subnet_prefix&#45;&gt;[root] aws_subnet.ex4_public (prepare state)</title>
<path fill="none" stroke="#000000" d="M1377.5662,-143.8314C1395.1533,-134.4516 1416.7916,-122.9112 1435.5168,-112.9244"/>
<polygon fill="#000000" stroke="#000000" points="1437.2682,-115.957 1444.4447,-108.1628 1433.9741,-109.7805 1437.2682,-115.957"/>
</g>
<!-- [root] output.web_server_ip -->
<g id="node20" class="node">
<title>[root] output.web_server_ip</title>
<polygon fill="none" stroke="#000000" points="2365.5,-180 2237.5,-180 2237.5,-144 2371.5,-144 2371.5,-174 2365.5,-180"/>
<polyline fill="none" stroke="#000000" points="2365.5,-180 2365.5,-174 "/>
<polyline fill="none" stroke="#000000" points="2371.5,-174 2365.5,-174 "/>
<text text-anchor="middle" x="2304.5" y="-158.3" font-family="Times,serif" font-size="14.00" fill="#000000">output.web_server_ip</text>
</g>
<!-- [root] output.web_server_ip&#45;&gt;[root] aws_instance.ex4_web (prepare state) -->
<g id="edge41" class="edge">
<title>[root] output.web_server_ip&#45;&gt;[root] aws_instance.ex4_web (prepare state)</title>
<path fill="none" stroke="#000000" d="M2292.3876,-143.8314C2286.9719,-135.7079 2280.4758,-125.9637 2274.5079,-117.0118"/>
<polygon fill="#000000" stroke="#000000" points="2277.2347,-114.7923 2268.7755,-108.4133 2271.4104,-118.6753 2277.2347,-114.7923"/>
</g>
<!-- [root] output.web_server_name -->
<g id="node21" class="node">
<title>[root] output.web_server_name</title>
<polygon fill="none" stroke="#000000" points="2537.5,-180 2389.5,-180 2389.5,-144 2543.5,-144 2543.5,-174 2537.5,-180"/>
<polyline fill="none" stroke="#000000" points="2537.5,-180 2537.5,-174 "/>
<polyline fill="none" stroke="#000000" points="2543.5,-174 2537.5,-174 "/>
<text text-anchor="middle" x="2466.5" y="-158.3" font-family="Times,serif" font-size="14.00" fill="#000000">output.web_server_name</text>
</g>
<!-- [root] output.web_server_name&#45;&gt;[root] aws_instance.ex4_web (prepare state) -->
<g id="edge42" class="edge">
<title>[root] output.web_server_name&#45;&gt;[root] aws_instance.ex4_web (prepare state)</title>
<path fill="none" stroke="#000000" d="M2413.7792,-143.9243C2384.9462,-134.0387 2349.0519,-121.7321 2318.8369,-111.3726"/>
<polygon fill="#000000" stroke="#000000" points="2319.8371,-108.0156 2309.2425,-108.0831 2317.5668,-114.6373 2319.8371,-108.0156"/>
</g>
<!-- [root] var.ami_name -->
<g id="node23" class="node">
<title>[root] var.ami_name</title>
<polygon fill="none" stroke="#000000" points="1674,-180 1585,-180 1585,-144 1680,-144 1680,-174 1674,-180"/>
<polyline fill="none" stroke="#000000" points="1674,-180 1674,-174 "/>
<polyline fill="none" stroke="#000000" points="1680,-174 1674,-174 "/>
<text text-anchor="middle" x="1632.5" y="-158.3" font-family="Times,serif" font-size="14.00" fill="#000000">var.ami_name</text>
</g>
<!-- [root] var.ami_owner -->
<g id="node24" class="node">
<title>[root] var.ami_owner</title>
<polygon fill="none" stroke="#000000" points="1791,-180 1698,-180 1698,-144 1797,-144 1797,-174 1791,-180"/>
<polyline fill="none" stroke="#000000" points="1791,-180 1791,-174 "/>
<polyline fill="none" stroke="#000000" points="1797,-174 1791,-174 "/>
<text text-anchor="middle" x="1747.5" y="-158.3" font-family="Times,serif" font-size="14.00" fill="#000000">var.ami_owner</text>
</g>
<!-- [root] var.priv_prefix -->
<g id="node25" class="node">
<title>[root] var.priv_prefix</title>
<polygon fill="none" stroke="#000000" points="1907.5,-180 1815.5,-180 1815.5,-144 1913.5,-144 1913.5,-174 1907.5,-180"/>
<polyline fill="none" stroke="#000000" points="1907.5,-180 1907.5,-174 "/>
<polyline fill="none" stroke="#000000" points="1913.5,-174 1907.5,-174 "/>
<text text-anchor="middle" x="1864.5" y="-158.3" font-family="Times,serif" font-size="14.00" fill="#000000">var.priv_prefix</text>
</g>
<!-- [root] var.pub_prefix -->
<g id="node26" class="node">
<title>[root] var.pub_prefix</title>
<polygon fill="none" stroke="#000000" points="2023,-180 1932,-180 1932,-144 2029,-144 2029,-174 2023,-180"/>
<polyline fill="none" stroke="#000000" points="2023,-180 2023,-174 "/>
<polyline fill="none" stroke="#000000" points="2029,-174 2023,-174 "/>
<text text-anchor="middle" x="1980.5" y="-158.3" font-family="Times,serif" font-size="14.00" fill="#000000">var.pub_prefix</text>
</g>
<!-- [root] var.vpc_prefix -->
<g id="node27" class="node">
<title>[root] var.vpc_prefix</title>
<polygon fill="none" stroke="#000000" points="2137.5,-180 2047.5,-180 2047.5,-144 2143.5,-144 2143.5,-174 2137.5,-180"/>
<polyline fill="none" stroke="#000000" points="2137.5,-180 2137.5,-174 "/>
<polyline fill="none" stroke="#000000" points="2143.5,-174 2137.5,-174 "/>
<text text-anchor="middle" x="2095.5" y="-158.3" font-family="Times,serif" font-size="14.00" fill="#000000">var.vpc_prefix</text>
</g>
<!-- [root] meta.count&#45;boundary (EachMode fixup) -->
<g id="node28" class="node">
<title>[root] meta.count&#45;boundary (EachMode fixup)</title>
<ellipse fill="none" stroke="#000000" cx="1248.5" cy="-234" rx="176.5689" ry="18"/>
<text text-anchor="middle" x="1248.5" y="-230.3" font-family="Times,serif" font-size="14.00" fill="#000000">[root] meta.count&#45;boundary (EachMode fixup)</text>
</g>
<!-- [root] meta.count&#45;boundary (EachMode fixup)&#45;&gt;[root] aws_default_security_group.def_sg (prepare state) -->
<g id="edge13" class="edge">
<title>[root] meta.count&#45;boundary (EachMode fixup)&#45;&gt;[root] aws_default_security_group.def_sg (prepare state)</title>
<path fill="none" stroke="#000000" d="M1421.2435,-230.0564C1683.8229,-223.2058 2155.8514,-207.176 2181.5,-180 2211.3477,-148.3748 2166.559,-125.5694 2115.6198,-110.828"/>
<polygon fill="#000000" stroke="#000000" points="2116.2844,-107.3802 2105.7125,-108.0781 2114.4121,-114.1252 2116.2844,-107.3802"/>
</g>
<!-- [root] meta.count&#45;boundary (EachMode fixup)&#45;&gt;[root] aws_instance.ex4_other (prepare state) -->
<g id="edge14" class="edge">
<title>[root] meta.count&#45;boundary (EachMode fixup)&#45;&gt;[root] aws_instance.ex4_other (prepare state)</title>
<path fill="none" stroke="#000000" d="M1093.3906,-225.3216C935.6398,-215.5607 709.2647,-198.6204 672.5,-180 653.4025,-170.3276 659.2426,-154.3435 640.5,-144 557.6649,-98.2858 521.8331,-124.6509 424.6912,-108.0843"/>
<polygon fill="#000000" stroke="#000000" points="425.2436,-104.6274 414.7788,-106.2822 423.9915,-111.5145 425.2436,-104.6274"/>
</g>
<!-- [root] meta.count&#45;boundary (EachMode fixup)&#45;&gt;[root] aws_internet_gateway.ex4_igw (prepare state) -->
<g id="edge15" class="edge">
<title>[root] meta.count&#45;boundary (EachMode fixup)&#45;&gt;[root] aws_internet_gateway.ex4_igw (prepare state)</title>
<path fill="none" stroke="#000000" d="M1101.0669,-224.0309C976.7828,-214.5547 809.1542,-198.9555 744.5,-180 710.168,-169.9344 705.3268,-158.2267 672.5,-144 645.6749,-132.3743 615.4497,-120.9313 589.4883,-111.5925"/>
<polygon fill="#000000" stroke="#000000" points="590.3576,-108.1866 579.763,-108.1204 588.0039,-114.7791 590.3576,-108.1866"/>
</g>
<!-- [root] meta.count&#45;boundary (EachMode fixup)&#45;&gt;[root] aws_key_pair.course_ssh_key (prepare state) -->
<g id="edge16" class="edge">
<title>[root] meta.count&#45;boundary (EachMode fixup)&#45;&gt;[root] aws_key_pair.course_ssh_key (prepare state)</title>
<path fill="none" stroke="#000000" d="M1102.1898,-223.8727C974.6897,-213.9547 806.0971,-197.7762 779.5,-180 757.917,-165.575 744.7303,-138.5504 737.3597,-117.865"/>
<polygon fill="#000000" stroke="#000000" points="740.6602,-116.6978 734.1973,-108.3025 734.0142,-118.8958 740.6602,-116.6978"/>
</g>
<!-- [root] meta.count&#45;boundary (EachMode fixup)&#45;&gt;[root] aws_route_table.ex4_rt (prepare state) -->
<g id="edge17" class="edge">
<title>[root] meta.count&#45;boundary (EachMode fixup)&#45;&gt;[root] aws_route_table.ex4_rt (prepare state)</title>
<path fill="none" stroke="#000000" d="M1091.6528,-225.617C967.4478,-217.328 811.5688,-202.5797 791.5,-180 780.8708,-168.0409 782.855,-157.4634 791.5,-144 800.4214,-130.1061 813.9059,-119.7417 828.6095,-112.0245"/>
<polygon fill="#000000" stroke="#000000" points="830.4015,-115.0463 837.8923,-107.5537 827.364,-108.7396 830.4015,-115.0463"/>
</g>
<!-- [root] meta.count&#45;boundary (EachMode fixup)&#45;&gt;[root] aws_route_table_association.rt2public (prepare state) -->
<g id="edge18" class="edge">
<title>[root] meta.count&#45;boundary (EachMode fixup)&#45;&gt;[root] aws_route_table_association.rt2public (prepare state)</title>
<path fill="none" stroke="#000000" d="M1156.1476,-218.5984C1114.1359,-209.5237 1071.0052,-196.5546 1058.5,-180 1042.7997,-159.2157 1061.4068,-133.419 1080.7633,-114.7792"/>
<polygon fill="#000000" stroke="#000000" points="1083.1408,-117.3478 1088.1485,-108.0112 1078.4114,-112.1871 1083.1408,-117.3478"/>
</g>
<!-- [root] meta.count&#45;boundary (EachMode fixup)&#45;&gt;[root] data.aws_ami.gnu_linux_image (prepare state) -->
<g id="edge19" class="edge">
<title>[root] meta.count&#45;boundary (EachMode fixup)&#45;&gt;[root] data.aws_ami.gnu_linux_image (prepare state)</title>
<path fill="none" stroke="#000000" d="M1420.3009,-229.7394C1675.5646,-222.5574 2127.8135,-206.2052 2152.5,-180 2218.3588,-110.0897 2196.2402,-153.4569 1900.2425,-108.0795"/>
<polygon fill="#000000" stroke="#000000" points="1900.4687,-104.5728 1890.0504,-106.4986 1899.3957,-111.4901 1900.4687,-104.5728"/>
</g>
<!-- [root] meta.count&#45;boundary (EachMode fixup)&#45;&gt;[root] output.VPC_prefix -->
<g id="edge20" class="edge">
<title>[root] meta.count&#45;boundary (EachMode fixup)&#45;&gt;[root] output.VPC_prefix</title>
<path fill="none" stroke="#000000" d="M1309.3157,-217.0282C1347.3583,-206.4116 1396.5032,-192.6968 1436.2127,-181.6151"/>
<polygon fill="#000000" stroke="#000000" points="1437.4014,-184.9171 1446.0926,-178.8579 1435.5198,-178.1748 1437.4014,-184.9171"/>
</g>
<!-- [root] meta.count&#45;boundary (EachMode fixup)&#45;&gt;[root] output.jump_host_ip -->
<g id="edge21" class="edge">
<title>[root] meta.count&#45;boundary (EachMode fixup)&#45;&gt;[root] output.jump_host_ip</title>
<path fill="none" stroke="#000000" d="M1075.5996,-230.1593C920.4005,-224.8003 686.4097,-211.9979 473.9216,-179.8951"/>
<polygon fill="#000000" stroke="#000000" points="474.2337,-176.4023 463.8198,-178.3518 473.1765,-183.322 474.2337,-176.4023"/>
</g>
<!-- [root] meta.count&#45;boundary (EachMode fixup)&#45;&gt;[root] output.jump_host_name -->
<g id="edge22" class="edge">
<title>[root] meta.count&#45;boundary (EachMode fixup)&#45;&gt;[root] output.jump_host_name</title>
<path fill="none" stroke="#000000" d="M1094.9638,-225.0624C972.5519,-216.785 796.9751,-202.3375 644.5,-180 643.4199,-179.8418 642.3332,-179.6787 641.2408,-179.5113"/>
<polygon fill="#000000" stroke="#000000" points="641.7233,-176.0439 631.2915,-177.895 640.6008,-182.9533 641.7233,-176.0439"/>
</g>
<!-- [root] meta.count&#45;boundary (EachMode fixup)&#45;&gt;[root] output.private_host_ip -->
<g id="edge23" class="edge">
<title>[root] meta.count&#45;boundary (EachMode fixup)&#45;&gt;[root] output.private_host_ip</title>
<path fill="none" stroke="#000000" d="M1077.7638,-229.2701C819.4106,-221.5035 339.9957,-204.5528 149.1304,-179.899"/>
<polygon fill="#000000" stroke="#000000" points="149.5405,-176.4228 139.1652,-178.5682 148.6139,-183.3612 149.5405,-176.4228"/>
</g>
<!-- [root] meta.count&#45;boundary (EachMode fixup)&#45;&gt;[root] output.private_host_name -->
<g id="edge24" class="edge">
<title>[root] meta.count&#45;boundary (EachMode fixup)&#45;&gt;[root] output.private_host_name</title>
<path fill="none" stroke="#000000" d="M1073.6662,-231.2378C889.6971,-226.6153 591.6962,-214.2652 325.8046,-180.0595"/>
<polygon fill="#000000" stroke="#000000" points="325.9315,-176.5467 315.5639,-178.7292 325.0296,-183.4884 325.9315,-176.5467"/>
</g>
<!-- [root] meta.count&#45;boundary (EachMode fixup)&#45;&gt;[root] output.private_subnet_prefix -->
<g id="edge25" class="edge">
<title>[root] meta.count&#45;boundary (EachMode fixup)&#45;&gt;[root] output.private_subnet_prefix</title>
<path fill="none" stroke="#000000" d="M1224.5275,-215.8314C1212.7139,-206.8779 1198.3028,-195.9558 1185.5565,-186.2955"/>
<polygon fill="#000000" stroke="#000000" points="1187.5486,-183.4137 1177.4648,-180.1628 1183.3205,-188.9925 1187.5486,-183.4137"/>
</g>
<!-- [root] meta.count&#45;boundary (EachMode fixup)&#45;&gt;[root] output.public_subnet_prefix -->
<g id="edge26" class="edge">
<title>[root] meta.count&#45;boundary (EachMode fixup)&#45;&gt;[root] output.public_subnet_prefix</title>
<path fill="none" stroke="#000000" d="M1272.4725,-215.8314C1284.2861,-206.8779 1298.6972,-195.9558 1311.4435,-186.2955"/>
<polygon fill="#000000" stroke="#000000" points="1313.6795,-188.9925 1319.5352,-180.1628 1309.4514,-183.4137 1313.6795,-188.9925"/>
</g>
<!-- [root] meta.count&#45;boundary (EachMode fixup)&#45;&gt;[root] output.web_server_ip -->
<g id="edge27" class="edge">
<title>[root] meta.count&#45;boundary (EachMode fixup)&#45;&gt;[root] output.web_server_ip</title>
<path fill="none" stroke="#000000" d="M1415.8012,-228.0388C1652.315,-219.0437 2072.4573,-200.8231 2223.5,-180 2224.7844,-179.8229 2226.0785,-179.6361 2227.3802,-179.4403"/>
<polygon fill="#000000" stroke="#000000" points="2228.1701,-182.8575 2237.4693,-177.7805 2227.0338,-175.9503 2228.1701,-182.8575"/>
</g>
<!-- [root] meta.count&#45;boundary (EachMode fixup)&#45;&gt;[root] output.web_server_name -->
<g id="edge28" class="edge">
<title>[root] meta.count&#45;boundary (EachMode fixup)&#45;&gt;[root] output.web_server_name</title>
<path fill="none" stroke="#000000" d="M1418.9434,-229.1869C1683.5594,-221.1622 2182.3713,-203.6844 2379.2502,-180.0137"/>
<polygon fill="#000000" stroke="#000000" points="2379.7502,-183.4786 2389.2429,-178.7734 2378.8879,-176.5319 2379.7502,-183.4786"/>
</g>
<!-- [root] meta.count&#45;boundary (EachMode fixup)&#45;&gt;[root] var.ami_name -->
<g id="edge29" class="edge">
<title>[root] meta.count&#45;boundary (EachMode fixup)&#45;&gt;[root] var.ami_name</title>
<path fill="none" stroke="#000000" d="M1358.2772,-219.8494C1419.501,-211.0106 1497.1936,-198.2328 1574.7897,-179.9935"/>
<polygon fill="#000000" stroke="#000000" points="1575.827,-183.3444 1584.7442,-177.6231 1574.2054,-176.5348 1575.827,-183.3444"/>
</g>
<!-- [root] meta.count&#45;boundary (EachMode fixup)&#45;&gt;[root] var.ami_owner -->
<g id="edge30" class="edge">
<title>[root] meta.count&#45;boundary (EachMode fixup)&#45;&gt;[root] var.ami_owner</title>
<path fill="none" stroke="#000000" d="M1390.0869,-223.1601C1474.3887,-215.1542 1583.4524,-202.0892 1687.8895,-180.158"/>
<polygon fill="#000000" stroke="#000000" points="1688.9299,-183.515 1697.9809,-178.0078 1687.4711,-176.6686 1688.9299,-183.515"/>
</g>
<!-- [root] meta.count&#45;boundary (EachMode fixup)&#45;&gt;[root] var.priv_prefix -->
<g id="edge31" class="edge">
<title>[root] meta.count&#45;boundary (EachMode fixup)&#45;&gt;[root] var.priv_prefix</title>
<path fill="none" stroke="#000000" d="M1411.5556,-227.0185C1520.895,-220.2458 1667.987,-207.0988 1805.4374,-179.9905"/>
<polygon fill="#000000" stroke="#000000" points="1806.1972,-183.4079 1815.3165,-178.0144 1804.8242,-176.5439 1806.1972,-183.4079"/>
</g>
<!-- [root] meta.count&#45;boundary (EachMode fixup)&#45;&gt;[root] var.pub_prefix -->
<g id="edge32" class="edge">
<title>[root] meta.count&#45;boundary (EachMode fixup)&#45;&gt;[root] var.pub_prefix</title>
<path fill="none" stroke="#000000" d="M1404.7431,-225.4863C1567.1474,-215.9448 1811.5603,-199.4644 1922.0177,-179.7703"/>
<polygon fill="#000000" stroke="#000000" points="1922.7749,-183.1895 1931.9644,-177.9165 1921.4924,-176.308 1922.7749,-183.1895"/>
</g>
<!-- [root] meta.count&#45;boundary (EachMode fixup)&#45;&gt;[root] var.vpc_prefix -->
<g id="edge33" class="edge">
<title>[root] meta.count&#45;boundary (EachMode fixup)&#45;&gt;[root] var.vpc_prefix</title>
<path fill="none" stroke="#000000" d="M1412.8915,-227.3614C1603.2515,-218.8882 1906.3435,-202.7699 2036.9635,-179.9813"/>
<polygon fill="#000000" stroke="#000000" points="2037.9811,-183.3535 2047.1904,-178.1152 2036.7245,-176.4672 2037.9811,-183.3535"/>
</g>
<!-- [root] provider.aws (close) -->
<g id="node29" class="node">
<title>[root] provider.aws (close)</title>
<ellipse fill="none" stroke="#000000" cx="905.5" cy="-162" rx="105.0817" ry="18"/>
<text text-anchor="middle" x="905.5" y="-158.3" font-family="Times,serif" font-size="14.00" fill="#000000">[root] provider.aws (close)</text>
</g>
<!-- [root] provider.aws (close)&#45;&gt;[root] aws_default_security_group.def_sg (prepare state) -->
<g id="edge43" class="edge">
<title>[root] provider.aws (close)&#45;&gt;[root] aws_default_security_group.def_sg (prepare state)</title>
<path fill="none" stroke="#000000" d="M989.1645,-151.0187C1011.6465,-148.3793 1035.9721,-145.8048 1058.5,-144 1428.1475,-114.3856 1525.5569,-144.9417 1897.9246,-108.0935"/>
<polygon fill="#000000" stroke="#000000" points="1898.2928,-111.5742 1907.8952,-107.0973 1897.5968,-104.6089 1898.2928,-111.5742"/>
</g>
<!-- [root] provider.aws (close)&#45;&gt;[root] aws_instance.ex4_jump (prepare state) -->
<g id="edge44" class="edge">
<title>[root] provider.aws (close)&#45;&gt;[root] aws_instance.ex4_jump (prepare state)</title>
<path fill="none" stroke="#000000" d="M807.4388,-155.3752C657.9348,-145.016 378.7711,-124.5892 260.1318,-107.944"/>
<polygon fill="#000000" stroke="#000000" points="260.5737,-104.4715 250.1745,-106.4985 259.568,-111.3989 260.5737,-104.4715"/>
</g>
<!-- [root] provider.aws (close)&#45;&gt;[root] aws_instance.ex4_other (prepare state) -->
<g id="edge45" class="edge">
<title>[root] provider.aws (close)&#45;&gt;[root] aws_instance.ex4_other (prepare state)</title>
<path fill="none" stroke="#000000" d="M809.9822,-154.2645C714.7286,-145.8725 564.1,-130.7706 424.7566,-108.1194"/>
<polygon fill="#000000" stroke="#000000" points="425.1792,-104.642 414.7442,-106.4755 424.045,-111.5495 425.1792,-104.642"/>
</g>
<!-- [root] provider.aws (close)&#45;&gt;[root] aws_instance.ex4_web (prepare state) -->
<g id="edge46" class="edge">
<title>[root] provider.aws (close)&#45;&gt;[root] aws_instance.ex4_web (prepare state)</title>
<path fill="none" stroke="#000000" d="M988.7549,-150.9278C1011.3479,-148.2723 1035.8308,-145.7126 1058.5,-144 1532.0868,-108.2228 1653.3044,-148.6243 2126.5,-108 2142.4796,-106.6281 2159.5002,-104.6498 2175.7812,-102.5023"/>
<polygon fill="#000000" stroke="#000000" points="2176.3659,-105.9551 2185.8069,-101.1471 2175.4282,-99.0182 2176.3659,-105.9551"/>
</g>
<!-- [root] provider.aws (close)&#45;&gt;[root] aws_internet_gateway.ex4_igw (prepare state) -->
<g id="edge47" class="edge">
<title>[root] provider.aws (close)&#45;&gt;[root] aws_internet_gateway.ex4_igw (prepare state)</title>
<path fill="none" stroke="#000000" d="M834.6576,-148.5418C777.189,-137.6243 695.3582,-122.0786 630.464,-109.7504"/>
<polygon fill="#000000" stroke="#000000" points="631.0871,-106.3063 620.6095,-107.8783 629.7806,-113.1833 631.0871,-106.3063"/>
</g>
<!-- [root] provider.aws (close)&#45;&gt;[root] aws_key_pair.course_ssh_key (prepare state) -->
<g id="edge48" class="edge">
<title>[root] provider.aws (close)&#45;&gt;[root] aws_key_pair.course_ssh_key (prepare state)</title>
<path fill="none" stroke="#000000" d="M864.6797,-145.3008C840.4416,-135.3852 809.4239,-122.6961 783.2153,-111.9745"/>
<polygon fill="#000000" stroke="#000000" points="784.3793,-108.6691 773.7986,-108.1222 781.7288,-115.148 784.3793,-108.6691"/>
</g>
<!-- [root] provider.aws (close)&#45;&gt;[root] aws_route_table.ex4_rt (prepare state) -->
<g id="edge49" class="edge">
<title>[root] provider.aws (close)&#45;&gt;[root] aws_route_table.ex4_rt (prepare state)</title>
<path fill="none" stroke="#000000" d="M906.5094,-143.8314C906.9372,-136.131 907.4459,-126.9743 907.9213,-118.4166"/>
<polygon fill="#000000" stroke="#000000" points="911.4169,-118.592 908.477,-108.4133 904.4276,-118.2037 911.4169,-118.592"/>
</g>
<!-- [root] provider.aws (close)&#45;&gt;[root] aws_route_table_association.rt2public (prepare state) -->
<g id="edge50" class="edge">
<title>[root] provider.aws (close)&#45;&gt;[root] aws_route_table_association.rt2public (prepare state)</title>
<path fill="none" stroke="#000000" d="M951.9873,-145.752C981.0236,-135.6034 1018.7384,-122.4215 1050.2049,-111.4235"/>
<polygon fill="#000000" stroke="#000000" points="1051.4681,-114.6897 1059.7533,-108.0862 1049.1585,-108.0817 1051.4681,-114.6897"/>
</g>
<!-- [root] provider.aws (close)&#45;&gt;[root] aws_subnet.ex4_private (prepare state) -->
<g id="edge51" class="edge">
<title>[root] provider.aws (close)&#45;&gt;[root] aws_subnet.ex4_private (prepare state)</title>
<path fill="none" stroke="#000000" d="M984.6551,-150.0612C1048.67,-140.1444 1141.3527,-125.1976 1231.8864,-108.0697"/>
<polygon fill="#000000" stroke="#000000" points="1232.6031,-111.4962 1241.7728,-106.1889 1231.2948,-104.6195 1232.6031,-111.4962"/>
</g>
<!-- [root] provider.aws (close)&#45;&gt;[root] aws_subnet.ex4_public (prepare state) -->
<g id="edge52" class="edge">
<title>[root] provider.aws (close)&#45;&gt;[root] aws_subnet.ex4_public (prepare state)</title>
<path fill="none" stroke="#000000" d="M992.0582,-151.639C1013.7472,-149.0918 1036.97,-146.4062 1058.5,-144 1206.2711,-127.485 1246.8386,-132.4894 1396.5944,-108.2269"/>
<polygon fill="#000000" stroke="#000000" points="1397.3156,-111.6555 1406.6187,-106.5859 1396.1846,-104.7474 1397.3156,-111.6555"/>
</g>
<!-- [root] provider.aws (close)&#45;&gt;[root] aws_vpc.ex4_vpc (prepare state) -->
<g id="edge53" class="edge">
<title>[root] provider.aws (close)&#45;&gt;[root] aws_vpc.ex4_vpc (prepare state)</title>
<path fill="none" stroke="#000000" d="M990.4018,-151.3168C1012.5474,-148.7208 1036.4,-146.0929 1058.5,-144 1277.4908,-123.261 1337.7563,-145.3108 1558.0002,-108.0774"/>
<polygon fill="#000000" stroke="#000000" points="1558.6641,-111.5147 1567.9299,-106.3772 1557.4827,-104.6151 1558.6641,-111.5147"/>
</g>
<!-- [root] provider.aws (close)&#45;&gt;[root] data.aws_ami.gnu_linux_image (prepare state) -->
<g id="edge54" class="edge">
<title>[root] provider.aws (close)&#45;&gt;[root] data.aws_ami.gnu_linux_image (prepare state)</title>
<path fill="none" stroke="#000000" d="M989.9813,-151.1391C1012.2397,-148.5302 1036.2518,-145.9406 1058.5,-144 1335.4955,-119.8391 1409.2655,-139.5688 1688.7596,-108.1297"/>
<polygon fill="#000000" stroke="#000000" points="1689.2489,-111.5967 1698.7896,-106.9895 1688.4582,-104.6415 1689.2489,-111.5967"/>
</g>
<!-- [root] root -->
<g id="node30" class="node">
<title>[root] root</title>
<ellipse fill="none" stroke="#000000" cx="1124.5" cy="-306" rx="47.3916" ry="18"/>
<text text-anchor="middle" x="1124.5" y="-302.3" font-family="Times,serif" font-size="14.00" fill="#000000">[root] root</text>
</g>
<!-- [root] root&#45;&gt;[root] meta.count&#45;boundary (EachMode fixup) -->
<g id="edge55" class="edge">
<title>[root] root&#45;&gt;[root] meta.count&#45;boundary (EachMode fixup)</title>
<path fill="none" stroke="#000000" d="M1150.4945,-290.9064C1167.4154,-281.0814 1189.8119,-268.077 1208.9233,-256.98"/>
<polygon fill="#000000" stroke="#000000" points="1210.831,-259.9196 1217.7214,-251.8715 1207.316,-253.8661 1210.831,-259.9196"/>
</g>
<!-- [root] root&#45;&gt;[root] provider.aws (close) -->
<g id="edge56" class="edge">
<title>[root] root&#45;&gt;[root] provider.aws (close)</title>
<path fill="none" stroke="#000000" d="M1100.6463,-290.3154C1061.9841,-264.8936 985.4498,-214.5698 940.5749,-185.0629"/>
<polygon fill="#000000" stroke="#000000" points="942.3211,-182.0223 932.0426,-179.4527 938.4752,-187.8712 942.3211,-182.0223"/>
</g>
</g>
</svg>
