<?xml version="1.0" encoding="UTF-8" standalone="no"?>
<!DOCTYPE svg PUBLIC "-//W3C//DTD SVG 1.1//EN"
 "http://www.w3.org/Graphics/SVG/1.1/DTD/svg11.dtd">
<!-- Generated by graphviz version 2.40.1 (20161225.0304)
 -->
<!-- Title: %3 Pages: 1 -->
<svg width="1900pt" height="476pt"
 viewBox="0.00 0.00 1900.02 476.00" xmlns="http://www.w3.org/2000/svg" xmlns:xlink="http://www.w3.org/1999/xlink">
<g id="graph0" class="graph" transform="scale(1 1) rotate(0) translate(4 472)">
<title>%3</title>
<polygon fill="#ffffff" stroke="transparent" points="-4,4 -4,-472 1896.0229,-472 1896.0229,4 -4,4"/>
<!-- [root] aws_default_security_group.def_sg -->
<g id="node1" class="node">
<title>[root] aws_default_security_group.def_sg</title>
<polygon fill="none" stroke="#000000" points="1673.9425,-324 1464.9425,-324 1464.9425,-288 1673.9425,-288 1673.9425,-324"/>
<text text-anchor="middle" x="1569.4425" y="-302.3" font-family="Times,serif" font-size="14.00" fill="#000000">aws_default_security_group.def_sg</text>
</g>
<!-- [root] aws_vpc.ex4_vpc -->
<g id="node11" class="node">
<title>[root] aws_vpc.ex4_vpc</title>
<polygon fill="none" stroke="#000000" points="1073.9425,-108 960.9425,-108 960.9425,-72 1073.9425,-72 1073.9425,-108"/>
<text text-anchor="middle" x="1017.4425" y="-86.3" font-family="Times,serif" font-size="14.00" fill="#000000">aws_vpc.ex4_vpc</text>
</g>
<!-- [root] aws_default_security_group.def_sg&#45;&gt;[root] aws_vpc.ex4_vpc -->
<g id="edge1" class="edge">
<title>[root] aws_default_security_group.def_sg&#45;&gt;[root] aws_vpc.ex4_vpc</title>
<path fill="none" stroke="#000000" d="M1523.3287,-287.9555C1422.4672,-248.4879 1182.5691,-154.6147 1073.3388,-111.8725"/>
<polygon fill="#000000" stroke="#000000" points="1074.4011,-108.5298 1063.8132,-108.1451 1071.8502,-115.0485 1074.4011,-108.5298"/>
</g>
<!-- [root] aws_instance.ex4_jump -->
<g id="node2" class="node">
<title>[root] aws_instance.ex4_jump</title>
<polygon fill="none" stroke="#000000" points="1120.9425,-252 973.9425,-252 973.9425,-216 1120.9425,-216 1120.9425,-252"/>
<text text-anchor="middle" x="1047.4425" y="-230.3" font-family="Times,serif" font-size="14.00" fill="#000000">aws_instance.ex4_jump</text>
</g>
<!-- [root] aws_internet_gateway.ex4_igw -->
<g id="node5" class="node">
<title>[root] aws_internet_gateway.ex4_igw</title>
<polygon fill="none" stroke="#000000" points="1141.4425,-180 953.4425,-180 953.4425,-144 1141.4425,-144 1141.4425,-180"/>
<text text-anchor="middle" x="1047.4425" y="-158.3" font-family="Times,serif" font-size="14.00" fill="#000000">aws_internet_gateway.ex4_igw</text>
</g>
<!-- [root] aws_instance.ex4_jump&#45;&gt;[root] aws_internet_gateway.ex4_igw -->
<g id="edge2" class="edge">
<title>[root] aws_instance.ex4_jump&#45;&gt;[root] aws_internet_gateway.ex4_igw</title>
<path fill="none" stroke="#000000" d="M1047.4425,-215.8314C1047.4425,-208.131 1047.4425,-198.9743 1047.4425,-190.4166"/>
<polygon fill="#000000" stroke="#000000" points="1050.9426,-190.4132 1047.4425,-180.4133 1043.9426,-190.4133 1050.9426,-190.4132"/>
</g>
<!-- [root] aws_key_pair.course_ssh_key -->
<g id="node6" class="node">
<title>[root] aws_key_pair.course_ssh_key</title>
<polygon fill="none" stroke="#000000" points="1660.9425,-180 1479.9425,-180 1479.9425,-144 1660.9425,-144 1660.9425,-180"/>
<text text-anchor="middle" x="1570.4425" y="-158.3" font-family="Times,serif" font-size="14.00" fill="#000000">aws_key_pair.course_ssh_key</text>
</g>
<!-- [root] aws_instance.ex4_jump&#45;&gt;[root] aws_key_pair.course_ssh_key -->
<g id="edge3" class="edge">
<title>[root] aws_instance.ex4_jump&#45;&gt;[root] aws_key_pair.course_ssh_key</title>
<path fill="none" stroke="#000000" d="M1121.0078,-218.0967C1125.2071,-217.3466 1129.374,-216.6408 1133.4425,-216 1279.4686,-193.0009 1320.1754,-201.1539 1469.8315,-180.1725"/>
<polygon fill="#000000" stroke="#000000" points="1470.4415,-183.621 1479.8489,-178.7477 1469.4557,-176.6908 1470.4415,-183.621"/>
</g>
<!-- [root] aws_subnet.ex4_public -->
<g id="node10" class="node">
<title>[root] aws_subnet.ex4_public</title>
<polygon fill="none" stroke="#000000" points="934.9425,-180 791.9425,-180 791.9425,-144 934.9425,-144 934.9425,-180"/>
<text text-anchor="middle" x="863.4425" y="-158.3" font-family="Times,serif" font-size="14.00" fill="#000000">aws_subnet.ex4_public</text>
</g>
<!-- [root] aws_instance.ex4_jump&#45;&gt;[root] aws_subnet.ex4_public -->
<g id="edge4" class="edge">
<title>[root] aws_instance.ex4_jump&#45;&gt;[root] aws_subnet.ex4_public</title>
<path fill="none" stroke="#000000" d="M1001.0115,-215.8314C976.0745,-206.0734 945.1616,-193.977 918.9599,-183.7242"/>
<polygon fill="#000000" stroke="#000000" points="920.1274,-180.4227 909.5396,-180.038 917.5766,-186.9414 920.1274,-180.4227"/>
</g>
<!-- [root] data.aws_ami.gnu_linux_image -->
<g id="node12" class="node">
<title>[root] data.aws_ami.gnu_linux_image</title>
<polygon fill="none" stroke="#000000" points="1461.9425,-180 1270.9425,-180 1270.9425,-144 1461.9425,-144 1461.9425,-180"/>
<text text-anchor="middle" x="1366.4425" y="-158.3" font-family="Times,serif" font-size="14.00" fill="#000000">data.aws_ami.gnu_linux_image</text>
</g>
<!-- [root] aws_instance.ex4_jump&#45;&gt;[root] data.aws_ami.gnu_linux_image -->
<g id="edge5" class="edge">
<title>[root] aws_instance.ex4_jump&#45;&gt;[root] data.aws_ami.gnu_linux_image</title>
<path fill="none" stroke="#000000" d="M1121.0281,-217.3913C1167.3341,-206.9398 1227.4107,-193.3802 1276.5332,-182.293"/>
<polygon fill="#000000" stroke="#000000" points="1277.5377,-185.6544 1286.5217,-180.0385 1275.9965,-178.8262 1277.5377,-185.6544"/>
</g>
<!-- [root] aws_instance.ex4_other -->
<g id="node3" class="node">
<title>[root] aws_instance.ex4_other</title>
<polygon fill="none" stroke="#000000" points="1838.4425,-324 1692.4425,-324 1692.4425,-288 1838.4425,-288 1838.4425,-324"/>
<text text-anchor="middle" x="1765.4425" y="-302.3" font-family="Times,serif" font-size="14.00" fill="#000000">aws_instance.ex4_other</text>
</g>
<!-- [root] aws_instance.ex4_other&#45;&gt;[root] aws_key_pair.course_ssh_key -->
<g id="edge6" class="edge">
<title>[root] aws_instance.ex4_other&#45;&gt;[root] aws_key_pair.course_ssh_key</title>
<path fill="none" stroke="#000000" d="M1740.7456,-287.7623C1705.8738,-262.0108 1642.1348,-214.942 1603.2996,-186.2637"/>
<polygon fill="#000000" stroke="#000000" points="1605.0623,-183.2146 1594.9388,-180.0896 1600.904,-188.8456 1605.0623,-183.2146"/>
</g>
<!-- [root] aws_subnet.ex4_private -->
<g id="node9" class="node">
<title>[root] aws_subnet.ex4_private</title>
<polygon fill="none" stroke="#000000" points="567.9425,-252 420.9425,-252 420.9425,-216 567.9425,-216 567.9425,-252"/>
<text text-anchor="middle" x="494.4425" y="-230.3" font-family="Times,serif" font-size="14.00" fill="#000000">aws_subnet.ex4_private</text>
</g>
<!-- [root] aws_instance.ex4_other&#45;&gt;[root] aws_subnet.ex4_private -->
<g id="edge7" class="edge">
<title>[root] aws_instance.ex4_other&#45;&gt;[root] aws_subnet.ex4_private</title>
<path fill="none" stroke="#000000" d="M1692.2404,-289.2339C1689.276,-288.7763 1686.335,-288.3614 1683.4425,-288 1198.7579,-227.4358 1067.3322,-311.205 578.2404,-251.9399"/>
<polygon fill="#000000" stroke="#000000" points="578.4417,-248.4385 568.0901,-250.6957 577.5899,-255.3865 578.4417,-248.4385"/>
</g>
<!-- [root] aws_instance.ex4_other&#45;&gt;[root] data.aws_ami.gnu_linux_image -->
<g id="edge8" class="edge">
<title>[root] aws_instance.ex4_other&#45;&gt;[root] data.aws_ami.gnu_linux_image</title>
<path fill="none" stroke="#000000" d="M1715.3129,-287.9081C1641.7496,-261.359 1504.7854,-211.9283 1426.1298,-183.5413"/>
<polygon fill="#000000" stroke="#000000" points="1426.9614,-180.1205 1416.367,-180.0179 1424.585,-186.7048 1426.9614,-180.1205"/>
</g>
<!-- [root] aws_instance.ex4_web -->
<g id="node4" class="node">
<title>[root] aws_instance.ex4_web</title>
<polygon fill="none" stroke="#000000" points="1283.9425,-252 1142.9425,-252 1142.9425,-216 1283.9425,-216 1283.9425,-252"/>
<text text-anchor="middle" x="1213.4425" y="-230.3" font-family="Times,serif" font-size="14.00" fill="#000000">aws_instance.ex4_web</text>
</g>
<!-- [root] aws_instance.ex4_web&#45;&gt;[root] aws_internet_gateway.ex4_igw -->
<g id="edge9" class="edge">
<title>[root] aws_instance.ex4_web&#45;&gt;[root] aws_internet_gateway.ex4_igw</title>
<path fill="none" stroke="#000000" d="M1171.5537,-215.8314C1149.3521,-206.2018 1121.9003,-194.295 1098.4641,-184.1299"/>
<polygon fill="#000000" stroke="#000000" points="1099.597,-180.8062 1089.0301,-180.038 1096.8116,-187.2282 1099.597,-180.8062"/>
</g>
<!-- [root] aws_instance.ex4_web&#45;&gt;[root] aws_key_pair.course_ssh_key -->
<g id="edge10" class="edge">
<title>[root] aws_instance.ex4_web&#45;&gt;[root] aws_key_pair.course_ssh_key</title>
<path fill="none" stroke="#000000" d="M1283.9742,-219.7751C1337.3757,-209.0051 1411.4283,-194.0701 1470.864,-182.0831"/>
<polygon fill="#000000" stroke="#000000" points="1471.915,-185.4416 1481.0257,-180.0336 1470.5311,-178.5798 1471.915,-185.4416"/>
</g>
<!-- [root] aws_instance.ex4_web&#45;&gt;[root] aws_subnet.ex4_public -->
<g id="edge11" class="edge">
<title>[root] aws_instance.ex4_web&#45;&gt;[root] aws_subnet.ex4_public</title>
<path fill="none" stroke="#000000" d="M1142.8821,-218.7788C1138.3359,-217.8294 1133.8261,-216.8961 1129.4425,-216 1050.4206,-199.8463 1028.0832,-197.2658 944.8726,-180.0597"/>
<polygon fill="#000000" stroke="#000000" points="945.4768,-176.6106 934.974,-178.0036 944.0531,-183.4643 945.4768,-176.6106"/>
</g>
<!-- [root] aws_instance.ex4_web&#45;&gt;[root] data.aws_ami.gnu_linux_image -->
<g id="edge12" class="edge">
<title>[root] aws_instance.ex4_web&#45;&gt;[root] data.aws_ami.gnu_linux_image</title>
<path fill="none" stroke="#000000" d="M1252.0508,-215.8314C1272.3318,-206.2874 1297.3662,-194.5065 1318.8396,-184.4013"/>
<polygon fill="#000000" stroke="#000000" points="1320.5539,-187.4629 1328.1117,-180.038 1317.5732,-181.1291 1320.5539,-187.4629"/>
</g>
<!-- [root] aws_internet_gateway.ex4_igw&#45;&gt;[root] aws_vpc.ex4_vpc -->
<g id="edge13" class="edge">
<title>[root] aws_internet_gateway.ex4_igw&#45;&gt;[root] aws_vpc.ex4_vpc</title>
<path fill="none" stroke="#000000" d="M1039.8722,-143.8314C1036.5932,-135.9617 1032.6805,-126.5712 1029.048,-117.8533"/>
<polygon fill="#000000" stroke="#000000" points="1032.1917,-116.2979 1025.1147,-108.4133 1025.7301,-118.9902 1032.1917,-116.2979"/>
</g>
<!-- [root] provider.aws -->
<g id="node22" class="node">
<title>[root] provider.aws</title>
<polygon fill="none" stroke="#000000" points="1290.4425,-36 1210.5091,-18 1290.4425,0 1370.3759,-18 1290.4425,-36"/>
<text text-anchor="middle" x="1290.4425" y="-14.3" font-family="Times,serif" font-size="14.00" fill="#000000">provider.aws</text>
</g>
<!-- [root] aws_key_pair.course_ssh_key&#45;&gt;[root] provider.aws -->
<g id="edge14" class="edge">
<title>[root] aws_key_pair.course_ssh_key&#45;&gt;[root] provider.aws</title>
<path fill="none" stroke="#000000" d="M1569.5483,-143.9548C1567.5266,-123.4583 1561.045,-90.4706 1540.4425,-72 1513.649,-47.9791 1420.5719,-32.729 1355.8823,-24.7723"/>
<polygon fill="#000000" stroke="#000000" points="1356.104,-21.2739 1345.7582,-23.5577 1355.2701,-28.2241 1356.104,-21.2739"/>
</g>
<!-- [root] aws_route_table.ex4_rt -->
<g id="node7" class="node">
<title>[root] aws_route_table.ex4_rt</title>
<polygon fill="none" stroke="#000000" points="955.9425,-252 812.9425,-252 812.9425,-216 955.9425,-216 955.9425,-252"/>
<text text-anchor="middle" x="884.4425" y="-230.3" font-family="Times,serif" font-size="14.00" fill="#000000">aws_route_table.ex4_rt</text>
</g>
<!-- [root] aws_route_table.ex4_rt&#45;&gt;[root] aws_internet_gateway.ex4_igw -->
<g id="edge15" class="edge">
<title>[root] aws_route_table.ex4_rt&#45;&gt;[root] aws_internet_gateway.ex4_igw</title>
<path fill="none" stroke="#000000" d="M925.5743,-215.8314C947.3745,-206.2018 974.3303,-194.295 997.3429,-184.1299"/>
<polygon fill="#000000" stroke="#000000" points="998.8733,-187.2802 1006.6065,-180.038 996.0449,-180.877 998.8733,-187.2802"/>
</g>
<!-- [root] aws_route_table_association.rt2public -->
<g id="node8" class="node">
<title>[root] aws_route_table_association.rt2public</title>
<polygon fill="none" stroke="#000000" points="472.4425,-324 248.4425,-324 248.4425,-288 472.4425,-288 472.4425,-324"/>
<text text-anchor="middle" x="360.4425" y="-302.3" font-family="Times,serif" font-size="14.00" fill="#000000">aws_route_table_association.rt2public</text>
</g>
<!-- [root] aws_route_table_association.rt2public&#45;&gt;[root] aws_route_table.ex4_rt -->
<g id="edge16" class="edge">
<title>[root] aws_route_table_association.rt2public&#45;&gt;[root] aws_route_table.ex4_rt</title>
<path fill="none" stroke="#000000" d="M472.493,-289.1919C475.5068,-288.7847 478.4944,-288.3866 481.4425,-288 622.0335,-269.5653 658.4524,-274.5487 798.4425,-252 799.9014,-251.765 801.3731,-251.522 802.8544,-251.272"/>
<polygon fill="#000000" stroke="#000000" points="803.4989,-254.7124 812.7394,-249.5294 802.2836,-247.8187 803.4989,-254.7124"/>
</g>
<!-- [root] aws_route_table_association.rt2public&#45;&gt;[root] aws_subnet.ex4_public -->
<g id="edge17" class="edge">
<title>[root] aws_route_table_association.rt2public&#45;&gt;[root] aws_subnet.ex4_public</title>
<path fill="none" stroke="#000000" d="M472.4999,-289.2433C475.5117,-288.8209 478.497,-288.4057 481.4425,-288 607.4846,-270.6384 650.4502,-306.4501 765.4425,-252 786.4688,-242.0438 786.3505,-231.7828 803.4425,-216 813.8623,-206.3782 825.4206,-195.9247 835.5888,-186.8008"/>
<polygon fill="#000000" stroke="#000000" points="837.9364,-189.3968 843.0517,-180.1186 833.2669,-184.1818 837.9364,-189.3968"/>
</g>
<!-- [root] aws_subnet.ex4_private&#45;&gt;[root] aws_vpc.ex4_vpc -->
<g id="edge18" class="edge">
<title>[root] aws_subnet.ex4_private&#45;&gt;[root] aws_vpc.ex4_vpc</title>
<path fill="none" stroke="#000000" d="M547.9555,-215.9188C605.5118,-196.7914 699.8959,-166.3464 782.4425,-144 838.84,-128.7325 903.5944,-114.0614 950.8292,-103.8747"/>
<polygon fill="#000000" stroke="#000000" points="951.5906,-107.2911 960.6334,-101.7704 950.1215,-100.4469 951.5906,-107.2911"/>
</g>
<!-- [root] var.priv_prefix -->
<g id="node25" class="node">
<title>[root] var.priv_prefix</title>
<polygon fill="none" stroke="#000000" points="537.4425,-180 445.4425,-180 445.4425,-144 543.4425,-144 543.4425,-174 537.4425,-180"/>
<polyline fill="none" stroke="#000000" points="537.4425,-180 537.4425,-174 "/>
<polyline fill="none" stroke="#000000" points="543.4425,-174 537.4425,-174 "/>
<text text-anchor="middle" x="494.4425" y="-158.3" font-family="Times,serif" font-size="14.00" fill="#000000">var.priv_prefix</text>
</g>
<!-- [root] aws_subnet.ex4_private&#45;&gt;[root] var.priv_prefix -->
<g id="edge19" class="edge">
<title>[root] aws_subnet.ex4_private&#45;&gt;[root] var.priv_prefix</title>
<path fill="none" stroke="#000000" d="M494.4425,-215.8314C494.4425,-208.131 494.4425,-198.9743 494.4425,-190.4166"/>
<polygon fill="#000000" stroke="#000000" points="497.9426,-190.4132 494.4425,-180.4133 490.9426,-190.4133 497.9426,-190.4132"/>
</g>
<!-- [root] aws_subnet.ex4_public&#45;&gt;[root] aws_vpc.ex4_vpc -->
<g id="edge20" class="edge">
<title>[root] aws_subnet.ex4_public&#45;&gt;[root] aws_vpc.ex4_vpc</title>
<path fill="none" stroke="#000000" d="M902.3032,-143.8314C922.7167,-134.2874 947.9148,-122.5065 969.5285,-112.4013"/>
<polygon fill="#000000" stroke="#000000" points="971.2848,-115.4439 978.8612,-108.038 968.32,-109.1027 971.2848,-115.4439"/>
</g>
<!-- [root] var.pub_prefix -->
<g id="node26" class="node">
<title>[root] var.pub_prefix</title>
<polygon fill="none" stroke="#000000" points="905.9425,-108 814.9425,-108 814.9425,-72 911.9425,-72 911.9425,-102 905.9425,-108"/>
<polyline fill="none" stroke="#000000" points="905.9425,-108 905.9425,-102 "/>
<polyline fill="none" stroke="#000000" points="911.9425,-102 905.9425,-102 "/>
<text text-anchor="middle" x="863.4425" y="-86.3" font-family="Times,serif" font-size="14.00" fill="#000000">var.pub_prefix</text>
</g>
<!-- [root] aws_subnet.ex4_public&#45;&gt;[root] var.pub_prefix -->
<g id="edge21" class="edge">
<title>[root] aws_subnet.ex4_public&#45;&gt;[root] var.pub_prefix</title>
<path fill="none" stroke="#000000" d="M863.4425,-143.8314C863.4425,-136.131 863.4425,-126.9743 863.4425,-118.4166"/>
<polygon fill="#000000" stroke="#000000" points="866.9426,-118.4132 863.4425,-108.4133 859.9426,-118.4133 866.9426,-118.4132"/>
</g>
<!-- [root] aws_vpc.ex4_vpc&#45;&gt;[root] provider.aws -->
<g id="edge22" class="edge">
<title>[root] aws_vpc.ex4_vpc&#45;&gt;[root] provider.aws</title>
<path fill="none" stroke="#000000" d="M1074.0083,-75.0816C1124.2065,-61.8425 1196.6738,-42.7302 1243.668,-30.3361"/>
<polygon fill="#000000" stroke="#000000" points="1244.8056,-33.6559 1253.5824,-27.7213 1243.0204,-26.8873 1244.8056,-33.6559"/>
</g>
<!-- [root] var.vpc_prefix -->
<g id="node27" class="node">
<title>[root] var.vpc_prefix</title>
<polygon fill="none" stroke="#000000" points="1059.4425,-36 969.4425,-36 969.4425,0 1065.4425,0 1065.4425,-30 1059.4425,-36"/>
<polyline fill="none" stroke="#000000" points="1059.4425,-36 1059.4425,-30 "/>
<polyline fill="none" stroke="#000000" points="1065.4425,-30 1059.4425,-30 "/>
<text text-anchor="middle" x="1017.4425" y="-14.3" font-family="Times,serif" font-size="14.00" fill="#000000">var.vpc_prefix</text>
</g>
<!-- [root] aws_vpc.ex4_vpc&#45;&gt;[root] var.vpc_prefix -->
<g id="edge23" class="edge">
<title>[root] aws_vpc.ex4_vpc&#45;&gt;[root] var.vpc_prefix</title>
<path fill="none" stroke="#000000" d="M1017.4425,-71.8314C1017.4425,-64.131 1017.4425,-54.9743 1017.4425,-46.4166"/>
<polygon fill="#000000" stroke="#000000" points="1020.9426,-46.4132 1017.4425,-36.4133 1013.9426,-46.4133 1020.9426,-46.4132"/>
</g>
<!-- [root] data.aws_ami.gnu_linux_image&#45;&gt;[root] provider.aws -->
<g id="edge24" class="edge">
<title>[root] data.aws_ami.gnu_linux_image&#45;&gt;[root] provider.aws</title>
<path fill="none" stroke="#000000" d="M1341.964,-143.9601C1330.7452,-134.4592 1318.2382,-121.9003 1310.4425,-108 1299.7741,-88.9777 1294.7964,-64.7082 1292.4739,-46.1661"/>
<polygon fill="#000000" stroke="#000000" points="1295.93,-45.5666 1291.3904,-35.9936 1288.9693,-46.3081 1295.93,-45.5666"/>
</g>
<!-- [root] var.ami_name -->
<g id="node23" class="node">
<title>[root] var.ami_name</title>
<polygon fill="none" stroke="#000000" points="1407.9425,-108 1318.9425,-108 1318.9425,-72 1413.9425,-72 1413.9425,-102 1407.9425,-108"/>
<polyline fill="none" stroke="#000000" points="1407.9425,-108 1407.9425,-102 "/>
<polyline fill="none" stroke="#000000" points="1413.9425,-102 1407.9425,-102 "/>
<text text-anchor="middle" x="1366.4425" y="-86.3" font-family="Times,serif" font-size="14.00" fill="#000000">var.ami_name</text>
</g>
<!-- [root] data.aws_ami.gnu_linux_image&#45;&gt;[root] var.ami_name -->
<g id="edge25" class="edge">
<title>[root] data.aws_ami.gnu_linux_image&#45;&gt;[root] var.ami_name</title>
<path fill="none" stroke="#000000" d="M1366.4425,-143.8314C1366.4425,-136.131 1366.4425,-126.9743 1366.4425,-118.4166"/>
<polygon fill="#000000" stroke="#000000" points="1369.9426,-118.4132 1366.4425,-108.4133 1362.9426,-118.4133 1369.9426,-118.4132"/>
</g>
<!-- [root] var.ami_owner -->
<g id="node24" class="node">
<title>[root] var.ami_owner</title>
<polygon fill="none" stroke="#000000" points="1524.9425,-108 1431.9425,-108 1431.9425,-72 1530.9425,-72 1530.9425,-102 1524.9425,-108"/>
<polyline fill="none" stroke="#000000" points="1524.9425,-108 1524.9425,-102 "/>
<polyline fill="none" stroke="#000000" points="1530.9425,-102 1524.9425,-102 "/>
<text text-anchor="middle" x="1481.4425" y="-86.3" font-family="Times,serif" font-size="14.00" fill="#000000">var.ami_owner</text>
</g>
<!-- [root] data.aws_ami.gnu_linux_image&#45;&gt;[root] var.ami_owner -->
<g id="edge26" class="edge">
<title>[root] data.aws_ami.gnu_linux_image&#45;&gt;[root] var.ami_owner</title>
<path fill="none" stroke="#000000" d="M1395.4618,-143.8314C1410.171,-134.6221 1428.2069,-123.3301 1443.9547,-113.4706"/>
<polygon fill="#000000" stroke="#000000" points="1445.8139,-116.436 1452.4324,-108.1628 1442.0992,-110.5029 1445.8139,-116.436"/>
</g>
<!-- [root] output.VPC_prefix -->
<g id="node13" class="node">
<title>[root] output.VPC_prefix</title>
<polygon fill="none" stroke="#000000" points="220.4425,-252 106.4425,-252 106.4425,-216 226.4425,-216 226.4425,-246 220.4425,-252"/>
<polyline fill="none" stroke="#000000" points="220.4425,-252 220.4425,-246 "/>
<polyline fill="none" stroke="#000000" points="226.4425,-246 220.4425,-246 "/>
<text text-anchor="middle" x="166.4425" y="-230.3" font-family="Times,serif" font-size="14.00" fill="#000000">output.VPC_prefix</text>
</g>
<!-- [root] output.VPC_prefix&#45;&gt;[root] aws_vpc.ex4_vpc -->
<g id="edge39" class="edge">
<title>[root] output.VPC_prefix&#45;&gt;[root] aws_vpc.ex4_vpc</title>
<path fill="none" stroke="#000000" d="M209.4989,-215.9476C262.0446,-194.7894 354.0856,-160.5229 436.4425,-144 647.9335,-101.5695 706.5256,-135.7193 920.4425,-108 930.3155,-106.7207 940.7056,-105.0943 950.8692,-103.3445"/>
<polygon fill="#000000" stroke="#000000" points="951.6938,-106.753 960.9297,-101.5619 950.4724,-99.8604 951.6938,-106.753"/>
</g>
<!-- [root] output.jump_host_ip -->
<g id="node14" class="node">
<title>[root] output.jump_host_ip</title>
<polygon fill="none" stroke="#000000" points="948.4425,-324 824.4425,-324 824.4425,-288 954.4425,-288 954.4425,-318 948.4425,-324"/>
<polyline fill="none" stroke="#000000" points="948.4425,-324 948.4425,-318 "/>
<polyline fill="none" stroke="#000000" points="954.4425,-318 948.4425,-318 "/>
<text text-anchor="middle" x="889.4425" y="-302.3" font-family="Times,serif" font-size="14.00" fill="#000000">output.jump_host_ip</text>
</g>
<!-- [root] output.jump_host_ip&#45;&gt;[root] aws_instance.ex4_jump -->
<g id="edge40" class="edge">
<title>[root] output.jump_host_ip&#45;&gt;[root] aws_instance.ex4_jump</title>
<path fill="none" stroke="#000000" d="M929.3125,-287.8314C950.3502,-278.2446 976.3408,-266.4008 998.5821,-256.2655"/>
<polygon fill="#000000" stroke="#000000" points="1000.2108,-259.3697 1007.8591,-252.038 997.308,-252.9999 1000.2108,-259.3697"/>
</g>
<!-- [root] output.jump_host_name -->
<g id="node15" class="node">
<title>[root] output.jump_host_name</title>
<polygon fill="none" stroke="#000000" points="1115.9425,-324 972.9425,-324 972.9425,-288 1121.9425,-288 1121.9425,-318 1115.9425,-324"/>
<polyline fill="none" stroke="#000000" points="1115.9425,-324 1115.9425,-318 "/>
<polyline fill="none" stroke="#000000" points="1121.9425,-318 1115.9425,-318 "/>
<text text-anchor="middle" x="1047.4425" y="-302.3" font-family="Times,serif" font-size="14.00" fill="#000000">output.jump_host_name</text>
</g>
<!-- [root] output.jump_host_name&#45;&gt;[root] aws_instance.ex4_jump -->
<g id="edge41" class="edge">
<title>[root] output.jump_host_name&#45;&gt;[root] aws_instance.ex4_jump</title>
<path fill="none" stroke="#000000" d="M1047.4425,-287.8314C1047.4425,-280.131 1047.4425,-270.9743 1047.4425,-262.4166"/>
<polygon fill="#000000" stroke="#000000" points="1050.9426,-262.4132 1047.4425,-252.4133 1043.9426,-262.4133 1050.9426,-262.4132"/>
</g>
<!-- [root] output.private_host_ip -->
<g id="node16" class="node">
<title>[root] output.private_host_ip</title>
<polygon fill="none" stroke="#000000" points="623.9425,-324 490.9425,-324 490.9425,-288 629.9425,-288 629.9425,-318 623.9425,-324"/>
<polyline fill="none" stroke="#000000" points="623.9425,-324 623.9425,-318 "/>
<polyline fill="none" stroke="#000000" points="629.9425,-318 623.9425,-318 "/>
<text text-anchor="middle" x="560.4425" y="-302.3" font-family="Times,serif" font-size="14.00" fill="#000000">output.private_host_ip</text>
</g>
<!-- [root] output.private_host_ip&#45;&gt;[root] aws_instance.ex4_jump -->
<g id="edge42" class="edge">
<title>[root] output.private_host_ip&#45;&gt;[root] aws_instance.ex4_jump</title>
<path fill="none" stroke="#000000" d="M630.1436,-289.6667C633.2804,-289.0743 636.3909,-288.5149 639.4425,-288 779.5257,-264.3615 819.2438,-274.928 963.6306,-252.0269"/>
<polygon fill="#000000" stroke="#000000" points="964.4366,-255.4422 973.7516,-250.3944 963.3219,-248.5315 964.4366,-255.4422"/>
</g>
<!-- [root] output.private_host_name -->
<g id="node17" class="node">
<title>[root] output.private_host_name</title>
<polygon fill="none" stroke="#000000" points="800.4425,-324 648.4425,-324 648.4425,-288 806.4425,-288 806.4425,-318 800.4425,-324"/>
<polyline fill="none" stroke="#000000" points="800.4425,-324 800.4425,-318 "/>
<polyline fill="none" stroke="#000000" points="806.4425,-318 800.4425,-318 "/>
<text text-anchor="middle" x="727.4425" y="-302.3" font-family="Times,serif" font-size="14.00" fill="#000000">output.private_host_name</text>
</g>
<!-- [root] output.private_host_name&#45;&gt;[root] aws_instance.ex4_jump -->
<g id="edge43" class="edge">
<title>[root] output.private_host_name&#45;&gt;[root] aws_instance.ex4_jump</title>
<path fill="none" stroke="#000000" d="M806.5436,-288.2022C854.42,-277.4301 915.4107,-263.7072 964.0433,-252.7648"/>
<polygon fill="#000000" stroke="#000000" points="964.9226,-256.1546 973.9104,-250.5447 963.386,-249.3253 964.9226,-256.1546"/>
</g>
<!-- [root] output.private_subnet_prefix -->
<g id="node18" class="node">
<title>[root] output.private_subnet_prefix</title>
<polygon fill="none" stroke="#000000" points="185.9425,-324 18.9425,-324 18.9425,-288 191.9425,-288 191.9425,-318 185.9425,-324"/>
<polyline fill="none" stroke="#000000" points="185.9425,-324 185.9425,-318 "/>
<polyline fill="none" stroke="#000000" points="191.9425,-318 185.9425,-318 "/>
<text text-anchor="middle" x="105.4425" y="-302.3" font-family="Times,serif" font-size="14.00" fill="#000000">output.private_subnet_prefix</text>
</g>
<!-- [root] output.private_subnet_prefix&#45;&gt;[root] aws_subnet.ex4_private -->
<g id="edge44" class="edge">
<title>[root] output.private_subnet_prefix&#45;&gt;[root] aws_subnet.ex4_private</title>
<path fill="none" stroke="#000000" d="M192.2575,-289.9314C257.4038,-277.8735 346.0858,-261.4593 410.5209,-249.533"/>
<polygon fill="#000000" stroke="#000000" points="411.4509,-252.9204 420.6468,-247.6588 410.1768,-246.0374 411.4509,-252.9204"/>
</g>
<!-- [root] output.public_subnet_prefix -->
<g id="node19" class="node">
<title>[root] output.public_subnet_prefix</title>
<polygon fill="none" stroke="#000000" points="750.4425,-252 586.4425,-252 586.4425,-216 756.4425,-216 756.4425,-246 750.4425,-252"/>
<polyline fill="none" stroke="#000000" points="750.4425,-252 750.4425,-246 "/>
<polyline fill="none" stroke="#000000" points="756.4425,-246 750.4425,-246 "/>
<text text-anchor="middle" x="671.4425" y="-230.3" font-family="Times,serif" font-size="14.00" fill="#000000">output.public_subnet_prefix</text>
</g>
<!-- [root] output.public_subnet_prefix&#45;&gt;[root] aws_subnet.ex4_public -->
<g id="edge45" class="edge">
<title>[root] output.public_subnet_prefix&#45;&gt;[root] aws_subnet.ex4_public</title>
<path fill="none" stroke="#000000" d="M719.8922,-215.8314C746.0276,-206.0306 778.4534,-193.8709 805.8707,-183.5894"/>
<polygon fill="#000000" stroke="#000000" points="807.2068,-186.8264 815.3412,-180.038 804.7489,-180.2721 807.2068,-186.8264"/>
</g>
<!-- [root] output.web_server_ip -->
<g id="node20" class="node">
<title>[root] output.web_server_ip</title>
<polygon fill="none" stroke="#000000" points="1440.4425,-324 1312.4425,-324 1312.4425,-288 1446.4425,-288 1446.4425,-318 1440.4425,-324"/>
<polyline fill="none" stroke="#000000" points="1440.4425,-324 1440.4425,-318 "/>
<polyline fill="none" stroke="#000000" points="1446.4425,-318 1440.4425,-318 "/>
<text text-anchor="middle" x="1379.4425" y="-302.3" font-family="Times,serif" font-size="14.00" fill="#000000">output.web_server_ip</text>
</g>
<!-- [root] output.web_server_ip&#45;&gt;[root] aws_instance.ex4_web -->
<g id="edge46" class="edge">
<title>[root] output.web_server_ip&#45;&gt;[root] aws_instance.ex4_web</title>
<path fill="none" stroke="#000000" d="M1337.5537,-287.8314C1315.3521,-278.2018 1287.9003,-266.295 1264.4641,-256.1299"/>
<polygon fill="#000000" stroke="#000000" points="1265.597,-252.8062 1255.0301,-252.038 1262.8116,-259.2282 1265.597,-252.8062"/>
</g>
<!-- [root] output.web_server_name -->
<g id="node21" class="node">
<title>[root] output.web_server_name</title>
<polygon fill="none" stroke="#000000" points="1288.4425,-324 1140.4425,-324 1140.4425,-288 1294.4425,-288 1294.4425,-318 1288.4425,-324"/>
<polyline fill="none" stroke="#000000" points="1288.4425,-324 1288.4425,-318 "/>
<polyline fill="none" stroke="#000000" points="1294.4425,-318 1288.4425,-318 "/>
<text text-anchor="middle" x="1217.4425" y="-302.3" font-family="Times,serif" font-size="14.00" fill="#000000">output.web_server_name</text>
</g>
<!-- [root] output.web_server_name&#45;&gt;[root] aws_instance.ex4_web -->
<g id="edge47" class="edge">
<title>[root] output.web_server_name&#45;&gt;[root] aws_instance.ex4_web</title>
<path fill="none" stroke="#000000" d="M1216.4331,-287.8314C1216.0053,-280.131 1215.4966,-270.9743 1215.0212,-262.4166"/>
<polygon fill="#000000" stroke="#000000" points="1218.5148,-262.2037 1214.4654,-252.4133 1211.5256,-262.592 1218.5148,-262.2037"/>
</g>
<!-- [root] meta.count&#45;boundary (EachMode fixup) -->
<g id="node28" class="node">
<title>[root] meta.count&#45;boundary (EachMode fixup)</title>
<ellipse fill="none" stroke="#000000" cx="889.4425" cy="-378" rx="176.5689" ry="18"/>
<text text-anchor="middle" x="889.4425" y="-374.3" font-family="Times,serif" font-size="14.00" fill="#000000">[root] meta.count&#45;boundary (EachMode fixup)</text>
</g>
<!-- [root] meta.count&#45;boundary (EachMode fixup)&#45;&gt;[root] aws_default_security_group.def_sg -->
<g id="edge27" class="edge">
<title>[root] meta.count&#45;boundary (EachMode fixup)&#45;&gt;[root] aws_default_security_group.def_sg</title>
<path fill="none" stroke="#000000" d="M1029.8497,-367.0198C1142.0783,-357.6753 1303.6339,-342.9565 1454.8583,-324.0305"/>
<polygon fill="#000000" stroke="#000000" points="1455.3194,-327.5002 1464.8036,-322.7778 1454.4446,-320.555 1455.3194,-327.5002"/>
</g>
<!-- [root] meta.count&#45;boundary (EachMode fixup)&#45;&gt;[root] aws_instance.ex4_other -->
<g id="edge28" class="edge">
<title>[root] meta.count&#45;boundary (EachMode fixup)&#45;&gt;[root] aws_instance.ex4_other</title>
<path fill="none" stroke="#000000" d="M1061.3583,-373.6531C1220.2587,-367.9275 1462.9359,-354.8573 1682.1332,-324.068"/>
<polygon fill="#000000" stroke="#000000" points="1682.8141,-327.5066 1692.2229,-322.6358 1681.8303,-320.576 1682.8141,-327.5066"/>
</g>
<!-- [root] meta.count&#45;boundary (EachMode fixup)&#45;&gt;[root] aws_route_table_association.rt2public -->
<g id="edge29" class="edge">
<title>[root] meta.count&#45;boundary (EachMode fixup)&#45;&gt;[root] aws_route_table_association.rt2public</title>
<path fill="none" stroke="#000000" d="M778.9834,-363.8689C699.3484,-353.566 589.0114,-339.0561 482.4691,-324.1336"/>
<polygon fill="#000000" stroke="#000000" points="482.8924,-320.6588 472.5029,-322.735 481.9194,-327.5909 482.8924,-320.6588"/>
</g>
<!-- [root] meta.count&#45;boundary (EachMode fixup)&#45;&gt;[root] output.VPC_prefix -->
<g id="edge30" class="edge">
<title>[root] meta.count&#45;boundary (EachMode fixup)&#45;&gt;[root] output.VPC_prefix</title>
<path fill="none" stroke="#000000" d="M718.368,-373.4616C469.2102,-366.0036 33.3324,-349.4008 9.4425,-324 -23.8078,-288.6468 40.2354,-263.1889 96.2617,-248.5569"/>
<polygon fill="#000000" stroke="#000000" points="97.4038,-251.8785 106.2439,-246.0386 95.6915,-245.0911 97.4038,-251.8785"/>
</g>
<!-- [root] meta.count&#45;boundary (EachMode fixup)&#45;&gt;[root] output.jump_host_ip -->
<g id="edge31" class="edge">
<title>[root] meta.count&#45;boundary (EachMode fixup)&#45;&gt;[root] output.jump_host_ip</title>
<path fill="none" stroke="#000000" d="M889.4425,-359.8314C889.4425,-352.131 889.4425,-342.9743 889.4425,-334.4166"/>
<polygon fill="#000000" stroke="#000000" points="892.9426,-334.4132 889.4425,-324.4133 885.9426,-334.4133 892.9426,-334.4132"/>
</g>
<!-- [root] meta.count&#45;boundary (EachMode fixup)&#45;&gt;[root] output.jump_host_name -->
<g id="edge32" class="edge">
<title>[root] meta.count&#45;boundary (EachMode fixup)&#45;&gt;[root] output.jump_host_name</title>
<path fill="none" stroke="#000000" d="M928.0936,-360.3868C949.372,-350.6903 975.9888,-338.5612 998.6839,-328.2191"/>
<polygon fill="#000000" stroke="#000000" points="1000.1686,-331.3889 1007.8169,-324.0572 997.2658,-325.0191 1000.1686,-331.3889"/>
</g>
<!-- [root] meta.count&#45;boundary (EachMode fixup)&#45;&gt;[root] output.private_host_ip -->
<g id="edge33" class="edge">
<title>[root] meta.count&#45;boundary (EachMode fixup)&#45;&gt;[root] output.private_host_ip</title>
<path fill="none" stroke="#000000" d="M813.0793,-361.7392C765.9681,-351.6525 704.0363,-338.2948 640.083,-324.1309"/>
<polygon fill="#000000" stroke="#000000" points="640.7403,-320.6917 630.2197,-321.9435 639.2248,-327.5256 640.7403,-320.6917"/>
</g>
<!-- [root] meta.count&#45;boundary (EachMode fixup)&#45;&gt;[root] output.private_host_name -->
<g id="edge34" class="edge">
<title>[root] meta.count&#45;boundary (EachMode fixup)&#45;&gt;[root] output.private_host_name</title>
<path fill="none" stroke="#000000" d="M849.8128,-360.3868C827.9957,-350.6903 800.7051,-338.5612 777.4355,-328.2191"/>
<polygon fill="#000000" stroke="#000000" points="778.6308,-324.9203 768.0712,-324.0572 775.7878,-331.317 778.6308,-324.9203"/>
</g>
<!-- [root] meta.count&#45;boundary (EachMode fixup)&#45;&gt;[root] output.private_subnet_prefix -->
<g id="edge35" class="edge">
<title>[root] meta.count&#45;boundary (EachMode fixup)&#45;&gt;[root] output.private_subnet_prefix</title>
<path fill="none" stroke="#000000" d="M731.3098,-369.8788C592.5899,-361.7111 385.6229,-346.9942 206.4425,-324 205.1258,-323.831 203.8002,-323.6566 202.4673,-323.4773"/>
<polygon fill="#000000" stroke="#000000" points="202.5245,-319.9505 192.1323,-322.0128 201.5423,-326.8813 202.5245,-319.9505"/>
</g>
<!-- [root] meta.count&#45;boundary (EachMode fixup)&#45;&gt;[root] output.public_subnet_prefix -->
<g id="edge36" class="edge">
<title>[root] meta.count&#45;boundary (EachMode fixup)&#45;&gt;[root] output.public_subnet_prefix</title>
<path fill="none" stroke="#000000" d="M714.2508,-375.4299C532.7453,-370.9047 271.1225,-358.421 239.4425,-324 228.6072,-312.2273 228.7465,-299.8994 239.4425,-288 287.8728,-234.1205 486.013,-260.7819 576.1236,-251.7271"/>
<polygon fill="#000000" stroke="#000000" points="576.8045,-255.1698 586.303,-250.4764 575.9508,-248.2221 576.8045,-255.1698"/>
</g>
<!-- [root] meta.count&#45;boundary (EachMode fixup)&#45;&gt;[root] output.web_server_ip -->
<g id="edge37" class="edge">
<title>[root] meta.count&#45;boundary (EachMode fixup)&#45;&gt;[root] output.web_server_ip</title>
<path fill="none" stroke="#000000" d="M1013.5994,-365.182C1093.5247,-356.1284 1199.7732,-342.6026 1302.4595,-324.0847"/>
<polygon fill="#000000" stroke="#000000" points="1303.1737,-327.5123 1312.3847,-322.2771 1301.9194,-320.6256 1303.1737,-327.5123"/>
</g>
<!-- [root] meta.count&#45;boundary (EachMode fixup)&#45;&gt;[root] output.web_server_name -->
<g id="edge38" class="edge">
<title>[root] meta.count&#45;boundary (EachMode fixup)&#45;&gt;[root] output.web_server_name</title>
<path fill="none" stroke="#000000" d="M963.8708,-361.6621C1013.3232,-350.8067 1078.4499,-336.5106 1130.3179,-325.1249"/>
<polygon fill="#000000" stroke="#000000" points="1131.1564,-328.5243 1140.1734,-322.9615 1129.6555,-321.687 1131.1564,-328.5243"/>
</g>
<!-- [root] provider.aws (close) -->
<g id="node29" class="node">
<title>[root] provider.aws (close)</title>
<ellipse fill="none" stroke="#000000" cx="1667.4425" cy="-378" rx="105.0817" ry="18"/>
<text text-anchor="middle" x="1667.4425" y="-374.3" font-family="Times,serif" font-size="14.00" fill="#000000">[root] provider.aws (close)</text>
</g>
<!-- [root] provider.aws (close)&#45;&gt;[root] aws_default_security_group.def_sg -->
<g id="edge48" class="edge">
<title>[root] provider.aws (close)&#45;&gt;[root] aws_default_security_group.def_sg</title>
<path fill="none" stroke="#000000" d="M1643.469,-360.3868C1631.0805,-351.2851 1615.7745,-340.0399 1602.3014,-330.1412"/>
<polygon fill="#000000" stroke="#000000" points="1604.3229,-327.2834 1594.1918,-324.1832 1600.1784,-332.9246 1604.3229,-327.2834"/>
</g>
<!-- [root] provider.aws (close)&#45;&gt;[root] aws_instance.ex4_jump -->
<g id="edge49" class="edge">
<title>[root] provider.aws (close)&#45;&gt;[root] aws_instance.ex4_jump</title>
<path fill="none" stroke="#000000" d="M1744.9561,-365.739C1809.4611,-352.4375 1885.1202,-327.6253 1847.4425,-288 1792.7066,-230.4348 1212.2232,-262.1675 1133.4425,-252 1132.6766,-251.9012 1131.9074,-251.7992 1131.1352,-251.6942"/>
<polygon fill="#000000" stroke="#000000" points="1131.376,-248.1915 1120.9687,-250.176 1130.3421,-255.1147 1131.376,-248.1915"/>
</g>
<!-- [root] provider.aws (close)&#45;&gt;[root] aws_instance.ex4_other -->
<g id="edge50" class="edge">
<title>[root] provider.aws (close)&#45;&gt;[root] aws_instance.ex4_other</title>
<path fill="none" stroke="#000000" d="M1691.416,-360.3868C1703.8045,-351.2851 1719.1105,-340.0399 1732.5836,-330.1412"/>
<polygon fill="#000000" stroke="#000000" points="1734.7066,-332.9246 1740.6932,-324.1832 1730.562,-327.2834 1734.7066,-332.9246"/>
</g>
<!-- [root] provider.aws (close)&#45;&gt;[root] aws_instance.ex4_web -->
<g id="edge51" class="edge">
<title>[root] provider.aws (close)&#45;&gt;[root] aws_instance.ex4_web</title>
<path fill="none" stroke="#000000" d="M1757.9022,-368.7643C1833.6656,-357.6094 1923.1054,-334.2565 1880.4425,-288 1860.8219,-266.7268 1467.5684,-245.8512 1294.272,-237.645"/>
<polygon fill="#000000" stroke="#000000" points="1294.3358,-234.1442 1284.1822,-237.1697 1294.0064,-241.1364 1294.3358,-234.1442"/>
</g>
<!-- [root] provider.aws (close)&#45;&gt;[root] aws_route_table_association.rt2public -->
<g id="edge52" class="edge">
<title>[root] provider.aws (close)&#45;&gt;[root] aws_route_table_association.rt2public</title>
<path fill="none" stroke="#000000" d="M1563.6835,-374.6396C1318.7218,-366.489 708.7671,-344.8683 482.6152,-324.0356"/>
<polygon fill="#000000" stroke="#000000" points="482.7476,-320.5326 472.4625,-323.0757 482.0886,-327.5015 482.7476,-320.5326"/>
</g>
<!-- [root] root -->
<g id="node30" class="node">
<title>[root] root</title>
<ellipse fill="none" stroke="#000000" cx="1229.4425" cy="-450" rx="47.3916" ry="18"/>
<text text-anchor="middle" x="1229.4425" y="-446.3" font-family="Times,serif" font-size="14.00" fill="#000000">[root] root</text>
</g>
<!-- [root] root&#45;&gt;[root] meta.count&#45;boundary (EachMode fixup) -->
<g id="edge53" class="edge">
<title>[root] root&#45;&gt;[root] meta.count&#45;boundary (EachMode fixup)</title>
<path fill="none" stroke="#000000" d="M1187.7518,-441.1714C1135.2736,-430.0584 1043.7955,-410.6865 975.936,-396.3163"/>
<polygon fill="#000000" stroke="#000000" points="976.6109,-392.8817 966.1028,-394.2339 975.1607,-399.7298 976.6109,-392.8817"/>
</g>
<!-- [root] root&#45;&gt;[root] provider.aws (close) -->
<g id="edge54" class="edge">
<title>[root] root&#45;&gt;[root] provider.aws (close)</title>
<path fill="none" stroke="#000000" d="M1273.0409,-442.8331C1344.6503,-431.0617 1488.466,-407.4208 1581.2261,-392.1726"/>
<polygon fill="#000000" stroke="#000000" points="1581.8567,-395.616 1591.1565,-390.5402 1580.7212,-388.7087 1581.8567,-395.616"/>
</g>
</g>
</svg>
